<?xml version="1.0" encoding="utf-8"?>
<!-- Generator: Adobe Illustrator 26.0.1, SVG Export Plug-In . SVG Version: 6.00 Build 0)  -->
<svg version="1.1" id="Layer_1" xmlns="http://www.w3.org/2000/svg" xmlns:xlink="http://www.w3.org/1999/xlink" x="0px" y="0px"
	 viewBox="0 0 100 100" style="enable-background:new 0 0 100 100;" xml:space="preserve">
<style type="text/css">
	.st0{fill:#010101;}
	.st1{fill:#050505;}
	.st2{fill:#060606;}
	.st3{fill:#0A0A09;}
	.st4{fill:#161713;}
	.st5{fill:#CDD3A7;}
	.st6{fill:#CFD4B4;}
	.st7{fill:#EEF0E0;}
	.st8{fill:#272726;}
	.st9{fill:#CBD2A2;}
	.st10{fill:#C8CF9E;}
	.st11{fill:#D4DBB1;}
	.st12{fill:#D6DBB7;}
	.st13{fill:#393937;}
	.st14{fill:#CDD3AF;}
	.st15{fill:#0D0D0C;}
	.st16{fill:#D1D7AF;}
	.st17{fill:#E6E9D2;}
	.st18{fill:#0F0F0E;}
	.st19{fill:#E8EADC;}
	.st20{fill:#F1F3E6;}
	.st21{fill:#E8EBD8;}
	.st22{fill:#2E2E2D;}
	.st23{fill:#ECEEDC;}
	.st24{fill:#141513;}
	.st25{fill:#202020;}
	.st26{fill:#D8DBC5;}
	.st27{fill:#C9D09B;}
	.st28{fill:#030303;}
	.st29{fill:#CCD4A3;}
	.st30{fill:#C9D09D;}
	.st31{fill:#D5DBB3;}
	.st32{fill:#CCD3A1;}
	.st33{fill:#1C1C1B;}
	.st34{fill:#CAD0A2;}
	.st35{fill:#D1D7AC;}
	.st36{fill:#EEEFE7;}
	.st37{fill:#D6DBBB;}
	.st38{fill:#E9EBD8;}
	.st39{fill:#D0D6AC;}
	.st40{fill:#DDE0CA;}
	.st41{fill:#DEE2C2;}
	.st42{fill:#E4E6D6;}
	.st43{fill:#DADDC3;}
	.st44{fill:#DFE3CD;}
	.st45{fill:#CED5A5;}
	.st46{fill:#D1D6B4;}
	.st47{fill:#CED4A7;}
	.st48{fill:#ECEFDD;}
	.st49{fill:#DCE1BF;}
	.st50{fill:#DAE0BB;}
	.st51{fill:#D6DBB6;}
	.st52{fill:#CFD1C0;}
	.st53{fill:#D9DCC8;}
	.st54{fill:#EDEEE9;}
	.st55{fill:#E4E8D0;}
	.st56{fill:#10100F;}
	.st57{fill:#D5DAB7;}
	.st58{fill:#CBD1A6;}
	.st59{fill:#E8E9E5;}
	.st60{fill:#FBFBF9;}
	.st61{fill:#EDEEE8;}
	.st62{fill:#0B0B0B;}
	.st63{fill:#E9ECD7;}
	.st64{fill:#F7F8F6;}
	.st65{fill:#E8EBD6;}
	.st66{fill:#ECEEE0;}
	.st67{fill:#E1E3DA;}
	.st68{fill:#D9DDC6;}
	.st69{fill:#0B0B0A;}
	.st70{fill:#CAD19F;}
	.st71{fill:#CBD3A0;}
	.st72{fill:#D1D7A9;}
	.st73{fill:#D2D8AD;}
	.st74{fill:#CAD1A0;}
	.st75{fill:#0F100D;}
	.st76{fill:#CAD2A1;}
	.st77{fill:#EDEEE7;}
	.st78{fill:#E9ECD9;}
	.st79{fill:#E9EAE2;}
	.st80{fill:#E0E4C6;}
	.st81{fill:#DEE1CF;}
	.st82{fill:#E0E3CA;}
	.st83{fill:#EFF1E1;}
	.st84{fill:#FBFBFA;}
	.st85{fill:#EFF1E2;}
	.st86{fill:#DFE2C6;}
	.st87{fill:#D5DBB2;}
	.st88{fill:#FBFBF8;}
	.st89{fill:#CACEB3;}
	.st90{fill:#E1E4CE;}
	.st91{fill:#F9FAF5;}
	.st92{fill:#FCFCFB;}
	.st93{fill:#E1E5C9;}
	.st94{fill:#F6F7EE;}
	.st95{fill:#666859;}
	.st96{fill:#EAEDD9;}
	.st97{fill:#E8EAE1;}
	.st98{fill:#E4E7CC;}
	.st99{fill:#CDD4A3;}
	.st100{fill:#C8CEA0;}
	.st101{fill:#D3D7B8;}
	.st102{fill:#ECEEDF;}
	.st103{fill:#E0E4C7;}
	.st104{fill:#E3E6CE;}
	.st105{fill:#F9F9F4;}
	.st106{fill:#CFD6A7;}
	.st107{fill:#DBDFC6;}
	.st108{fill:#CDD4A4;}
	.st109{fill:#2C2D24;}
	.st110{fill:#CCD2A2;}
	.st111{fill:#D1D6B7;}
	.st112{fill:#CAD29D;}
	.st113{fill:#CBD29F;}
	.st114{fill:#CCD4A2;}
	.st115{fill:#CCD3A0;}
	.st116{fill:#CAD29E;}
	.st117{fill:#D3D9AE;}
	.st118{fill:#CDD4A2;}
	.st119{fill:#CBD39F;}
	.st120{fill:#D0D6A8;}
	.st121{fill:#CFD6A6;}
	.st122{fill:#D4DAAF;}
	.st123{fill:#D2D9AC;}
	.st124{fill:#D1D7AA;}
	.st125{fill:#D6DCB4;}
	.st126{fill:#ECEEDB;}
	.st127{fill:#CED5A4;}
	.st128{fill:#DADFBC;}
	.st129{fill:#DADFBB;}
	.st130{fill:#D7DDB6;}
	.st131{fill:#DFE3C3;}
	.st132{fill:#D7DCB5;}
	.st133{fill:#F0F2E4;}
	.st134{fill:#D6DCB5;}
	.st135{fill:#EAEDD8;}
	.st136{fill:#CED4A3;}
	.st137{fill:#CED6A6;}
	.st138{fill:#D3D9AD;}
	.st139{fill:#CBD29E;}
	.st140{fill:#D1D8AA;}
	.st141{fill:#CFD5A6;}
	.st142{fill:#CFD5A5;}
	.st143{fill:#D9DEB8;}
	.st144{fill:#DBE0BD;}
	.st145{fill:#D1D8AB;}
	.st146{fill:#D5DBB1;}
	.st147{fill:#D2D8AB;}
	.st148{fill:#D4DAB0;}
	.st149{fill:#DFE4C5;}
	.st150{fill:#E7E9D1;}
	.st151{fill:#CED4A4;}
	.st152{fill:#CCD4A1;}
	.st153{fill:#CFD7A8;}
	.st154{fill:#E4E8CD;}
	.st155{fill:#E1E5C8;}
	.st156{fill:#D2D8AC;}
	.st157{fill:#D9DEBA;}
	.st158{fill:#F6F6F4;}
	.st159{fill:#D1D7B2;}
	.st160{fill:#CBD2A4;}
	.st161{fill:#DAE0BC;}
	.st162{fill:#EEF0DF;}
	.st163{fill:#E1E6C9;}
	.st164{fill:#D0D7A9;}
	.st165{fill:#D9DDC0;}
	.st166{fill:#C9D09E;}
	.st167{fill:#DADEC1;}
	.st168{fill:#3C3E2F;}
	.st169{fill:#E2E6CA;}
	.st170{fill:#E7EAD2;}
	.st171{fill:#DFE4C4;}
	.st172{fill:#E1E4D0;}
	.st173{fill:#E4E9CE;}
	.st174{fill:#DBE0BC;}
	.st175{fill:#C4CB9B;}
	.st176{fill:#DDE1C2;}
	.st177{fill:#F9FAF6;}
	.st178{fill:#E2E3E0;}
	.st179{fill:#EAEDDA;}
	.st180{fill:#DDE0C5;}
	.st181{fill:#D2D8AA;}
	.st182{fill:#D9DFBA;}
	.st183{fill:#D2D9AD;}
	.st184{fill:#E3E5D5;}
	.st185{fill:#D2D7B5;}
	.st186{fill:#F6F8F0;}
	.st187{fill:#DDE0CB;}
	.st188{fill:#D3DAAE;}
	.st189{fill:#E6E8DD;}
	.st190{fill:#CDD3A2;}
	.st191{fill:#CED5A3;}
	.st192{fill:#383838;}
	.st193{fill:#BDC495;}
	.st194{fill:#F1F2ED;}
	.st195{fill:#EBEDDA;}
	.st196{fill:#E9ECDC;}
	.st197{fill:#EBEDD9;}
	.st198{fill:#E6E8D0;}
	.st199{fill:#DDE2C1;}
	.st200{fill:#F2F3E7;}
	.st201{fill:#FEFEFE;}
	.st202{fill:#EFF2E3;}
	.st203{fill:#F3F4E9;}
	.st204{fill:#F7F8F2;}
	.st205{fill:#F1F2EC;}
	.st206{fill:#E6E9D1;}
	.st207{fill:#EFF1E3;}
	.st208{fill:#C5CAA5;}
</style>
<g>
	<path d="M45.6,1.5c6.1-1.9,11.5-0.8,15.8,4.1c0.7,0.8,1.3,0.8,2.3,0.3c7.6-3.5,16.2,0,18.6,7.6c0.3,1.1,0.1,2.3,0.7,3.4
		c0.1,0.2,0.2,0.4,0.2,0.6c-0.1,0.8-0.6,1-1.3,0.8c-0.7-0.3-0.9-1-1.1-1.6c-0.1-0.4-0.3-0.8-0.4-1.3c-0.2-0.6-0.4-1.3-0.8-1.8
		c-0.2-0.3-0.4-0.6-0.6-0.8c-1.1-1.2-2.3-2.1-3.3-3.3c-1.4-1-3-1.5-4.7-1.9c-1-0.3-2-0.2-2.9,0c-0.8,0.1-1.6-0.3-2.4,0
		c-3,1.8-5.4,1.4-7.5-1.4c-0.8-1-2-1.5-3.2-2c-0.4-0.2-0.8-0.3-1.2-0.4c-0.4-0.1-0.8-0.3-1.2-0.4c-0.6-0.2-1.2-0.2-1.8-0.2
		c-0.3,0-0.5,0-0.8,0c-0.6,0-1.1,0.2-1.6,0.4c-1.4,0.4-2.7,1.1-3.3,2.6c-0.5,1-1.3,1.1-2.3,0.8C38.8,5.7,35,5.6,31.2,6.3
		c-0.5,0.2-1.1,0.4-1.6,0.5c-0.2,0-0.3,0.1-0.5,0.1c-0.5,0-1,0.1-1.5,0.3c-0.3,0.1-0.6,0.2-0.9,0.4c-0.1,0.1-0.3,0.2-0.5,0.2
		c-1.7,0.5-3,1.6-4.2,2.8c-0.4,0.3-0.7,0.7-1,1.1c-0.9,0.6-1.4,1.4-1.8,2.3c-0.5,0.8-0.8,1.7-1.1,2.6c-0.2,0.6-0.2,1.2-0.2,1.8
		c0,0.5,0,0.9,0,1.4c0,0.2-0.1,0.4-0.1,0.6c-0.3,0.9-1.1,1.2-1.7,1.7c-0.9,0.5-1.6,1.4-2.4,2c-1.8,1-3.5,2-4.8,3.7
		C8.1,28.5,7,29,6.5,30c-0.6,0.8-1.1,1.7-1.5,2.7c-0.2,0.4-0.3,0.8-0.4,1.2c-0.2,0.7-0.2,1.4-0.3,2.1c-0.3,0.8-0.3,1.6,0,2.3
		c0.2,0.9,0.3,1.9,0.7,2.8c0.2,0.4,0.3,0.8,0.5,1.2c0.1,0.3,0.3,0.6,0.4,0.9c0.3,0.8,0.8,1.4,1.5,1.9c1.1,1.2,2.4,2.1,3.8,3
		c0.8,0.5,1.8,0.8,2.8,1.1c4.4,1.3,8.5,0.7,12.2-1.9c1.5-1,2.7-1.5,4.3-0.2c1.2,1,2.6,0.8,4,0.2c0.7-0.3,1.3-0.8,2-1.2
		c0.9-0.4,1.8-0.7,2.2,0.5c0.2,0.8-0.2,1.5-0.6,2.2c-0.3,0.5-0.6,0.9-1,1.2c-0.5,0.6-1.2,0.8-1.7,1.4c-0.1,1.2,0.8,2,1.2,3
		c0.1,0.1,0.1,0.3,0.2,0.5c0.2,0.6,0.3,1.1,0.6,1.6c0.1,0.1,0.1,0.3,0.2,0.5c0.2,0.7,0.5,1.3,0.8,1.9c0.5,1.5,1,2.9,1.5,4.4
		c0.2,0.6,0.3,1.3,0.2,2c-0.1,0.3-0.3,0.5-0.7,0.5c-1.1-0.6-1.2-1.8-1.5-2.8c-1.1-3.5-2.7-6.7-4.3-10c-0.2-0.5-0.5-0.9-1-1.1
		c-0.3-0.1-0.5-0.1-0.8-0.2c-0.4-0.2-0.8-0.3-1.2-0.5c-2.1-1.8-2.1-1.8-4.3,0c-1,0.9-2.2,1.5-3.4,2c-0.6,1.1,0.6,1.6,0.8,2.4
		c0.4,0.8,0.8,1.6,1.1,2.4c0.1,0.5,0,1-0.5,1.2c-0.2,0-0.4,0-0.5-0.2c-0.2-0.3-0.4-0.6-0.5-1c-1.1-3.3-2.9-4.6-6.9-4.6
		c-12.6,0-18-12.5-15.7-20.3c1.1-3.6,3.6-6.1,6.6-8.2c2.4-1.7,4.9-3.2,7.4-4.8c0.4-0.3,0.8-0.4,0.7-1.1C14.2,6,25.6,1,34.9,1.9
		c1.9,0.2,3.8,0.7,5.6,1.1c1.4,0.3,2.6,0.1,3.7-1C44.6,1.6,45.1,1.6,45.6,1.5z"/>
	<path class="st0" d="M88.6,51.8c-1.6,0.4-3.1,1.4-4.9,1.2c-2,0.4-4.2,0-6.2,0.5c-1.4-0.1-2.7-0.4-4-0.8c-0.2,0-0.4-0.1-0.5-0.2
		c-1.5-0.7-3-1.3-4.4-2.1c-0.5-0.3-1-0.7-1.5-0.1c-0.3,0.5-0.5,1.1-0.6,1.6c-0.1,0.3-0.1,0.5-0.2,0.8c-0.3,0.8-0.5,1.6-0.7,2.4
		c-1.2,4.5-2.6,8.9-4,13.3c-0.1,0.3-0.1,0.6-0.2,0.9c-0.4,2.2-0.7,4.3-1.1,6.5c-0.1,0.5-0.3,0.9-0.4,1.4c-0.3,0.8-0.2,1.6-0.2,2.4
		c-0.1,0.8-0.3,1.5-0.9,2c-0.3,0.1-0.6,0.2-0.9,0.1c-0.6-0.3-0.9-0.8-1.1-1.4c-0.1-0.8-0.1-1.6-0.4-2.4c-0.2-0.7-0.1-1.4-0.1-2.1
		c0-0.9,0.1-1.8-0.2-2.7c-0.1-0.3-0.1-0.6-0.1-0.9c0-0.8-0.1-1.5,0-2.3c0-2,0-4,0-6.1c0-0.5,0-1.1,0-1.6c0-0.2,0-0.4,0-0.6
		c0-0.4,0.1-0.8,0.2-1.2c0.3-0.7,0.2-1.5,0.3-2.2c0-0.3,0.1-0.6,0.2-0.9c0.1-0.4,0.3-0.8,0.4-1.1c0.1-0.2,0.1-0.4,0.1-0.5
		c0.2-0.5,0.2-1.2,1-1.1c0.6,0.1,0.6,0.7,0.7,1.2c0.2,1.1,0.1,2.1,0.2,3.2c-0.1,3.6,0.2,7.3-0.3,10.6c0-0.1,0.1-0.6,0.2-1
		c0-2.6,0.9-5,1.6-7.5c0.9-3,1.7-6,2.8-9c0.1-0.7,0.5-1.3,1-1.8c-0.6,0.4-1.2,1.1-1.5-0.3c0-0.4,0.2-0.7,0.4-1
		c0.3-0.3,0.6-0.5,0.9-0.7c1-1.4,2.5-1.4,4-1c1.2,0.3,2.2,1,3.3,1.5c1.1,0.5,2.3,0.9,3.4,1.1c0.7,0.2,1.3,0.3,2,0.4
		c2.3,0.4,4.7,0.4,7,0.2c0.5-0.1,1.1-0.3,1.5-0.7c1.1-0.4,2.3-0.5,3.2-1.2c0.7-0.6,1.5-1,2.1-1.7c3-3.4,4.2-7.3,3.8-11.8
		c0-0.7,0.1-1.5-0.2-2.2c-0.1-0.4-0.2-0.9-0.4-1.3c-0.1-0.3-0.2-0.7-0.2-1.1c-0.2-1.4-0.9-2.6-1.5-3.9c-0.1-0.1-0.2-0.3-0.2-0.4
		c-0.2-0.4-0.4-0.9-0.8-1.2c-0.2-0.2-0.5-0.4-0.7-0.7c-0.3-0.5-0.6-1-1-1.4c-0.5-0.8-1.2-1.4-2.1-1.9c-1.1-0.7-2-1.6-3.3-2
		c-0.2-0.1-0.3-0.2-0.4-0.4c-0.4-0.5-0.8-0.9-0.2-1.5c0.5,0,1-0.2,1.4,0.2c0.1,0.4,0.5,0.4,0.8,0.3c0.9-0.4,1.5,0.2,2.2,0.6
		c0.2,0.2,0.3,0.4,0.5,0.6c6.3,3.9,9,10,10.1,17c1.5,5.3-1.4,9.1-4.6,12.7c-0.3,0.3-0.7,0.6-1,1c-0.3,0.3-0.6,0.6-1,0.9
		c-0.7,0.5-1.4,1-2.1,1.4C89.3,51.8,89,51.8,88.6,51.8z"/>
	<path class="st1" d="M25.7,65.8c-0.5-1.2-0.8-2.5-0.6-3.8c-0.2-0.8-0.8-1.8,0.8-1.6c1.1,0.7,1.3,2,1.7,3.1c0.4,1,0.6,2.1,1.2,3
		c0.2,0.5,0.4,1.1,0.6,1.7c0.5,1.8,0.7,3.7,1,5.6c0.1,0.3,0.1,0.6,0.2,0.9c0,0.9,0.1,1.8,0.4,2.7c0,0.2,0.1,0.4,0.1,0.6
		c0,4,1,8,0,12c0,0.2-0.1,0.4-0.1,0.6c-0.4,1.3-0.4,2.7-1.2,3.9c-0.1,0.2-0.3,0.3-0.5,0.4c-0.9,0.4-1.6,0.3-1.6-0.9
		c0.1-1-0.2-2,0.1-3c0-7.8-0.4-15.6-1.5-23.4C25.8,67.1,26.6,66.2,25.7,65.8z"/>
	<path class="st2" d="M42.8,98.4c-4.2-0.4-8.5-0.3-12.7-1.1c-0.5-0.5-1.1-0.2-1.6-0.2c-0.6-0.1-1.2-0.3-1.2-1c0-0.7,0.6-0.7,1.1-0.7
		c1.6-0.1,3.3-0.2,4.9-0.2c4.6-0.1,9.3,0.2,13.9-0.4c0.8,0,1.7,0,2.5,0.2c3.5,0.5,7,0.1,10.4,0.2c0.3,0,0.6,0,1,0
		c1.8,0.5,3.6,0.3,5.4,0.6c1.7,0.3,1.8,0.2,1.5-1.6c0-0.3-0.1-0.6-0.1-0.9c0-0.7-0.1-1.5,0.5-2.2c0.6-0.1,0.8,0.3,1,0.7
		c0.5,1.3,1.3,2.5,1.9,3.8c0.8,1.7,0.3,2.5-1.5,2.5c-1.2,0-2.4,0.1-3.6-0.1c-7-0.8-14-1.2-21.1-1.4c3.5,0.3,6.9,0.6,10.4,0.9
		c0.5,0.1,1.6-0.2,1.2,1.1c-4.1,0-8.1-0.1-12.2,0.2C44.1,98.9,43.4,98.8,42.8,98.4z"/>
	<path class="st0" d="M57.1,98.4c-1.9-0.2-3.9-0.5-5.8-0.7c-2.3-0.2-4.6-0.3-6.9-0.4c-0.4,0-1,0.1-1-0.5c0-0.6,0.5-0.6,1-0.6
		c4.8-0.1,9.7,0.4,14.5,0.6c3.2,0.1,6.3,1,9.4,0.6c0.1,0,0.1,0,0.2,0c1,0.2,2.3,0.9,2.8-0.1c0.5-1-0.7-2-1.2-3
		c-0.5-1-0.9-2.1-1.4-3.1c-0.9-1.1-0.6-2.5-0.5-3.7c0.1-2.3,0.7-4.6,0.9-6.9c0-0.4,0.2-0.7,0.3-1.1c0.1-0.3,0.2-0.7,0.6-0.6
		c0.5,0.1,0.5,0.5,0.5,0.9c0,0.3-0.1,0.5-0.1,0.8c-0.2,3.8,0,7.5,1.1,11.2c0.5,1.9,1.4,3.7,1.4,5.7c-0.1,1.8-1.4,2.2-2.8,2.2
		c-2.7,0.1-5.3-0.3-8-0.7c-0.8-0.1-1.5-0.1-2.3-0.1C59,98.3,57.9,99,57.1,98.4z"/>
	<path class="st3" d="M77,53.1c2.2,0,4.5,0,6.7-0.1c-1.1,0.7-2.2,0.4-3.4,0.3c-0.9,0-1.3,0.3-1.7,1.1c-1.5,3.5-3.1,7-4.6,10.5
		c-0.3,0.5-0.5,1.1-0.6,1.7c-0.1,0.9-0.5,1.7-0.7,2.5c-0.4,0.7,0.2,1.7-0.8,2.1c-0.5-0.2-0.6-0.7-0.6-1.2c0-0.3,0-0.6,0.1-0.9
		c0.5-2.2,1.2-4.4,1.3-6.7c0-1.3,0.5-2.5,0.8-3.8c0.1-0.4,0.3-0.7,0.5-1C75.2,56.1,75.3,54.1,77,53.1z"/>
	<path class="st4" d="M71.3,91.9c-2-4-1.2-8.4-1.3-12.6c-0.8,3.9-1.6,7.8-1.4,11.9c0,0.8-0.1,1.6-0.1,2.5c-0.9-0.4-0.8-1.3-0.8-2
		c0-0.3,0-0.7,0-1c-0.1-4.1,0.1-8.3,1.1-12.3c0.6-1.2,0.9-2.5,1.2-3.7c0.2-0.6,0.3-1.2,0.9-1.6c0.2,0,0.4,0,0.5,0.2
		c0.3,0.7-0.1,1.4,0,2.2c-0.3,0.9,0.1,1.9,0,2.8c0,0.7-0.1,1.3-0.5,1.8c-0.4,1.1-0.5,2.3-0.4,3.4c0.9,2,0.4,4.2,0.7,6.2
		c0.2,0.8,0.3,1.5,0.5,2.3C71.6,92.1,71.5,92.1,71.3,91.9z"/>
	<path class="st5" d="M93.2,48.4c1-1.3,1.9-2.6,2.9-3.8c2.1-2.6,2.4-5.7,2.2-8.9c0.5,0.4,0.3,1,0.4,1.4c0.7,1.4,0.8,2.9,0.3,4.4
		c-0.5,0.5-0.2,1.3-0.4,1.9c-0.3,0.4-0.5,0.8-0.8,1.1c-0.4,0.4-0.7,0.9-1,1.3c-0.5,0.6-1,1.1-1.1,1.8c-0.1,0.2-0.1,0.3-0.3,0.4
		c-0.3,0.1-0.6,0.1-0.9,0.2c-0.1,0.1-0.3,0.1-0.4,0.2c-0.2,0.1-0.4,0.2-0.7,0.2C93.5,48.6,93.3,48.5,93.2,48.4z"/>
	<path class="st6" d="M57.1,98.4c0.9,0.2,1.9-0.2,2.8,0.4c-3.4,0-6.9,0.1-10.3,0c-1.8,0-3.4,1.2-5.3,0.4c-0.5-0.2-1.1-0.2-1.4-0.8
		C47.6,98.4,52.3,98.4,57.1,98.4z"/>
	<path class="st7" d="M96.8,45.7c0-0.7,0.4-1.1,1.1-1.2c1.3,1.7,1.1,2.5-0.9,3.6c-0.9,0.5-1.4,1.3-1.7,2.2c-0.6,0.2-0.5-0.7-1.1-0.6
		c-0.1-0.1-0.2-0.2-0.3-0.3c-0.1-0.6,0.4-0.9,0.6-1.3l0,0c0.4-0.3,0.8,0.4,1.2,0l0,0C96.2,47.4,96.3,46.5,96.8,45.7z"/>
	<path class="st8" d="M33.3,95.7c-1.6,0.1-3.1,0.2-4.7,0.2c-0.4,0-0.8-0.3-0.9,0.3c-0.1,0.5,0.3,0.6,0.7,0.7
		c0.6,0.1,1.3-0.2,1.7,0.5c-0.1,0-0.3,0.1-0.4,0c-2.9-0.1-2.9-0.1-2.4-3c0.2-1.1-0.1-2.3,0.4-3.4c0,0.9,0.1,1.7,0,2.6
		c-0.1,1.3,0.5,1.3,1.4,0.9c0.7,0.2,1.4,0.3,2.1,0.3c0.6,0,1.2,0,1.7,0.3C33.2,95.3,33.3,95.5,33.3,95.7z"/>
	<path class="st9" d="M71.2,89.6c-0.8-2-0.9-4.1-0.7-6.2c1.6,1.3,2.1,2.7,1.1,4.6C71.4,88.5,71.4,89.1,71.2,89.6z"/>
	<path class="st10" d="M45.6,1.5c-0.6,0.4-1.3,0.8-1.8,1.3c-1.1,1.2-2.2,1-3.3,0.1c0-0.1,0-0.2,0-0.4C42,2.1,43,0.5,44.8,1
		C45.1,1.2,45.3,1.3,45.6,1.5z"/>
	<path class="st11" d="M44.8,1c-1.7-0.2-2.4,2.1-4.2,1.5C41.9,0.1,42.5-0.1,44.8,1z"/>
	<path class="st12" d="M98.7,41.4c0.6-1.4,0.1-2.9,0.1-4.3c1.6,1.2,1.7,3.5,0.3,5.1C98.7,42.1,98.4,41.9,98.7,41.4z"/>
	<path class="st13" d="M71.3,75.3c0-0.8,0-1.5,0.1-2.3c-0.1-0.8,0.2-1.4,0.7-2c0.1-0.6,0.3-1.2,0.4-1.9c0.2-0.1,0.3-0.1,0.5,0
		c-0.2,2.3-1.3,4.5-1.3,6.9c-0.1,0.1-0.3,0.1-0.5,0C71.1,75.8,71.1,75.6,71.3,75.3z"/>
	<path class="st14" d="M71.4,76.2c0.1-0.1,0.2-0.1,0.3-0.2c0.9,2,0.7,3.4-0.8,3.9c0-0.6,0-1.2,0.1-1.8
		C71.4,77.6,70.8,76.8,71.4,76.2z"/>
	<path class="st15" d="M26,60.7c-1.4-0.3-0.6,0.8-0.9,1.3c-0.5-0.2-0.8-0.6-0.8-1.2c-0.1-0.6-0.5-1-0.3-1.6c0.5-0.3,0.4-0.7,0.4-1.1
		c0.6-0.2,0.8,0.3,1.1,0.6C25.8,59.3,26.4,59.8,26,60.7z"/>
	<path class="st16" d="M93.7,51.8c-1,0.7-1.7,2.4-3.4,1.2c-0.1-0.4,0.1-0.7,0.3-1c1.1-0.1,2-0.9,3-1.4C94,51,94,51.4,93.7,51.8z"/>
	<path class="st17" d="M93.7,51.8c0-0.4,0.1-0.9-0.4-1.2c-0.2-0.2-0.2-0.5-0.1-0.8c0.3-0.5,0.9,0,1.3-0.4c0.7-0.2,0.3,0.7,0.8,0.8
		C95.3,51.5,94.6,51.7,93.7,51.8z"/>
	<path class="st18" d="M71.3,91.9c0.1,0,0.3,0,0.4,0c0.8,1.7,1.5,3.5,1.2,5.5C72.4,95.5,71.9,93.7,71.3,91.9z"/>
	<path class="st19" d="M87.9,18.4c-0.8-0.3-1.5-0.6-2.3-0.9c0.8-1.6,1.6-0.8,2.3,0.1C88.1,17.9,88.1,18.1,87.9,18.4z"/>
	<path class="st20" d="M84.8,17.2c-0.5,0-1,0-1.5,0c-0.2,0.2-0.3,0.1-0.4-0.1c0-0.1,0-0.2,0-0.3c0.4,0,0.8,0,1.1-0.2
		c0.4-0.3-0.4-1.6,0.7-1.2C85.5,15.7,84.6,16.6,84.8,17.2z"/>
	<path class="st21" d="M90.5,52.3c0,0.3,0,0.6-0.3,0.7c-0.8-0.1-1.1-0.7-1.6-1.2c0.1-0.3,0.5-0.3,0.8-0.4
		C89.9,51.6,90.2,52,90.5,52.3z"/>
	<path class="st22" d="M73,69.2c-0.2,0-0.3,0-0.5,0c0.3-0.9,0.5-1.8,0.8-2.7c0.1-0.2,0.3-0.2,0.4,0C73.6,67.4,73.3,68.3,73,69.2z"/>
	<path class="st23" d="M98.7,41.4c0.1,0.3,0.3,0.5,0.4,0.8c0,0.4,0.1,0.9-0.4,1.2C98.4,42.7,98,42.1,98.7,41.4z"/>
	<path class="st24" d="M24,59.2c0.3,0.5,0.5,1,0.3,1.6c-0.4-0.5-0.6-1-0.7-1.6C23.8,59.2,23.9,59.2,24,59.2z"/>
	<path class="st25" d="M73.6,66.5c-0.1,0-0.3,0-0.4,0c0.1-0.6,0.2-1.2,0.8-1.5C74.1,65.5,74,66,73.6,66.5z"/>
	<path class="st15" d="M25.7,65.8c0.9,0.4,0.5,1.2,0.5,1.9C25.8,67.1,25.9,66.4,25.7,65.8z"/>
	<path class="st26" d="M87.9,18.4c0-0.3,0-0.6,0-0.8c0.9,0.1,0.6,0.6,0.4,1.1C88.1,18.8,87.9,18.6,87.9,18.4z"/>
	<path class="st27" d="M88.6,48.8c-1,0.8-2,1.4-3.3,1.2c-0.4,0.3-0.8,0.3-1.3,0c-0.4-0.5-1-0.5-1.5-0.2c-0.1,0.1-0.2,0.2-0.1,0.3
		c0,0.1,0.1,0.1,0.2,0.1c0.2,0,0.4,0,0.7,0.1c0.3,0.1,0.7,0.1,0.9,0.5c-2.6,0.6-5.2,0.6-7.7-0.1c-0.1-0.1-0.2-0.3-0.1-0.5
		c0.5-1.6-0.5-1.3-1.4-1.1c-0.2,0-0.4-0.1-0.5-0.2c-0.6-0.5-0.9-1-0.5-1.8c0.6-1,0.6-2.1,0.9-3.2c0.1-0.4,0-0.8-0.1-1.2
		c-0.2-0.4-0.5-0.8-0.9-1c-0.9-0.3-0.7,0.8-1.3,1c-0.2,0.1-0.3,0.1-0.5,0.1c-0.4-0.1-0.6-0.3-0.8-0.6c-0.1-0.1-0.1-0.3-0.1-0.4
		c0.1-0.1,0.2-0.2,0.2-0.3c-0.1-0.1-0.2-0.1-0.4,0c-0.5,0.1-0.9,0.2-1.4,0.1c-0.4-0.1-0.5-0.4-0.5-0.8c0.2-0.9,1-1.3,1.8-1.7
		c0.5-0.4,0.5-1.5,1.5-1.3C71.5,37.7,71,37,70.7,37c-0.5,0.1-0.5,1.1-1.1,1.4c-0.2,0.1-0.3,0.1-0.5,0.1c-0.8-0.5-1.8-0.6-2.7-0.9
		c-0.4-0.2-0.8-0.2-1.2-0.1c-1.3,0.4-1.7,1.1-1.2,2.3c-0.7-1.6,0.5-1.9,1.7-2.2c0.3,0,0.6,0,0.8,0.1c1.9,1.1,0.4,2.1-0.2,3.1
		c-0.2,0.1,0.1,0-0.1,0.1c-0.2,0.1-0.3,0.2-0.5,0.2c0.1,0.1,0.3,0,0.4,0.1c1.1,0.4,1.3,1.4,1.8,2.3c0.6-0.1,0.4-0.7,0.7-1
		c0.3-0.4,0.7-0.6,1.2-0.6c0.4,0,0.7,0,1.1,0.2c0.5,0.5,0.5,1.1,0.2,1.6c-0.4,0.8,0.1,1.1,0.4,1.6c0,0.2,0,0.3,0,0.5
		c-0.2,0.5-0.8,0.5-1.2,0.7c0.2,0.9,1.5,1.4,0.7,2.5c-1-0.5-2.1-0.9-3.1-1.4c-1.7-1-3-0.6-4,1.1c-0.2,0.2-0.4,0.3-0.6,0.5
		c-0.2-0.1-0.3-0.2-0.4-0.3c-1.5-0.2-1.3-1.9-2.4-2.5c-0.2-0.1-0.3-0.2-0.4-0.4c-0.2-0.3-0.2-0.7-0.2-1.1c0.1-0.4,0.2-0.7,0.6-0.9
		c0.6,0.5,1.1,0.1,1.6-0.2c-0.5,0.2-0.9,0.7-1.5,0.3c-0.3-0.2-0.4-1-1-0.7c-1.5,0.8-2.8,0.1-4.1-0.5c-0.2,0.2-1.3-0.7-0.7,0.5
		c0.1,0.3,0.1,0.6-0.1,0.9c-1,0.1-0.3,1.1-0.7,1.5c-0.1,0.1-0.2,0.2-0.4,0.3c-0.8,0.2-0.3,1.3-1.1,1.4c-0.3,0.1-0.6,0-0.8,0
		c0.3,0.1,0.7,0.1,1-0.1c0.5,0,0.8,0.3,0.7,0.8c-0.1,0.2-0.4,0.2-0.5,0.3c2.3,0.2,2,1.8,1.6,3.3c0.2,0.4,0.7,0.4,0.9,0.8
		c0.1,0.5,0.9,0.7,0.5,1.4c-3.7,1.7-7.3,0.8-10.8-0.7c-0.9-0.4-1.9-0.7-2.3-1.8c0.1-1.1,1.1-1,1.8-1.3c0.6-0.1,1-0.5,1.4-1
		c0.2-0.3,0.4-0.6,0.5-1c0-0.6-0.5-0.5-0.8-0.6c-0.8-0.3-1,0.3-1.3,0.8c-0.2,0.2-0.4,0.4-0.6,0.4c-1.3-0.4-1.5,1.1-2.4,1.4
		c-1.8-0.5-2.4-2.1-3-3.6c-0.4-1.5-1.2-0.4-1.8-0.3c-0.5,0.5-1.8-0.3-1.7,1.1c-1.8,1-3.5,0.9-5.1-0.4c-1-0.8-1.6-0.7-2.6,0.1
		c-4.1,3.1-8.6,3.9-13.5,2.2c-0.3-1.8-2.2-1.4-3.2-2.3C9.5,46.8,8.8,46,8,45.5c-0.9-0.6-1.5-1.5-2.5-2.1c-0.1-0.3-0.2-0.5-0.4-0.8
		c0.2-1.2,0.8-2.5-0.6-3.5c-0.2-0.2-0.3-0.4-0.3-0.7c0.1-0.6,0.4-1.2,0.6-1.7c0.9-0.9,0.2-1.9,0.1-2.9c0-0.2,0-0.3,0.1-0.5
		c0.5-0.6,0.6-1.5,1.6-1.6c1.2,0.5,1.5-0.1,1.3-1.2c0.5-1.5,2-2.4,2.6-3.9c0.2-0.2,0.4-0.4,0.7-0.4c0.7,0.1,1.3,0,2-0.1
		c0.6,0,1.1,0.6,1.8,0.6c1-0.5,0.2-1.8,1-2.5c0.4-0.3,0.4-0.7,0.5-1.1c0.2-0.7,0.7-1.1,1.4-1.4c0.4-0.2-0.2-0.3-0.2-0.5
		c-0.2-0.3,0-0.7-0.1-1c-0.1-0.1-0.1-0.2,0-0.4c0.4-0.5,0.3-1,0-1.5c0-0.7-0.3-1.4,0.2-2c0.3,0.1,0.4,0.6,0.8,0.4
		c0.4-0.3,0.8-0.6,1.2-0.7c0.4-0.2,0.7-0.4,1.1-0.6c1.6-0.2,2.1-1.8,3.2-2.3c-1-0.4-2,1-3.2,0.1c-0.4-0.4-0.3-0.8,0-1.3
		c0.7-0.5,1.1-1.2,1.7-1.8c0.7-0.8,1.5-1.2,2.5-0.4c0.3-0.1,0,1,0.6,0.3c0.6-0.7,1-1.5,2.1-1.1c0.4,0.3,0.4,0.9,0.7,1.3
		c0.3,0.3,0.6,0.4,1,0.4c0.2,0,0.5,0,0.7,0c0.3,0,0.6,0.1,0.9,0.2c0.3,0.1,0.8,0.3,1-0.1c0.1-0.4-0.5-0.5-0.7-0.8
		c-0.2-0.3-0.2-0.7-0.2-1c0.1-1-1.3-1.8-0.5-2.9c4-0.9,8-0.8,11.9,0.5c0.8,0.3,1.3,0.3,1.6-0.6C45,4,46.5,3.3,48.2,3
		c0.4,0.2,0.7,0.4,0.6,0.8c-0.1,0.6,0.3,0.1,0.4,0.2c0.6,0.6,1.8,0.9,1.5,2.2c-0.1,0.3,0.2,0.2,0.4,0.2c0.4,0,0.8,0,0.9-0.5
		C52,5,52.7,4.5,53.3,4c0.3-0.1,0.6-0.1,0.9,0c0.3,0.1,0.5,0.3,0.9,0.3c-0.2-0.2-0.5-0.3-0.2-0.6c1.7,0.6,3.3,1.5,4.4,2.9
		c1.3,1.6,2.7,2.4,4.7,1.1c0.4-0.3,1-0.6,1.6-0.5c0.1,0.1,0.1,0.1,0.2,0.2c0,0.2,0,0.3,0,0.5c-0.2,0.4,0,0.7,0.1,1.1
		c0,1.1,1.6,1.5,1.4,2.9c0.5-2.1,2.6-2,3.9-3.1c0.2,0,0.3,0.2,0.5,0.2c0.8,0.1-0.3,1.8,1.2,1.3c1.1-0.4,0.9,1.3,2.1,1.3
		c0.6,0,0.8,1.4,1.8,1.5c0.2,0,0.4,0,0.6,0c0.3,0,0.5,0.1,0.7,0.2c0.3,0.5,0.3,1.2,1.1,1.5c0.8,0.2,0.4,1.9,1.7,1.5
		c0.2,0,0.3,0.1,0.4,0.2c0.2,0.5,0.5,1,0.7,1.6c0.7,0.5,1.6-0.2,2.2,0.4c0,0.1,0,0.2,0,0.3c1.3,0.4,1.7,2,3.1,2.2
		c0.3,1,1.7,1.5,1.1,2.8c1,1.4-0.5,2.9,0.2,4.2c0,0.4,0.1,0.8,0.6,0.9c0.5,0.3,0.7,0.9,1.4,0.7c0.9-0.6,1.7-0.6,1.7,0.7
		c0,1.2-0.2,2.4-1,3.3c0.4,0.1,0.7-0.5,1.2-0.3c0.3,0.1,0.5,0.4,0.8,0.7c0.5,0.5,1.1,0.7,1.6,1.1c0.5,4.7-0.7,8.9-4.2,12.3
		c-0.6,0.1-1.1-0.1-1.7-0.2c-0.9-0.2-0.9,0.6-1.1,1.1C87.6,48.7,88.5,48.3,88.6,48.8z"/>
	<path class="st27" d="M26,60.7c-0.1-0.7-0.5-1.3-0.9-1.9c-0.3-1.2-1.4-2.1-1.6-3.3c-0.1-0.6,0-1.2-0.7-1.5
		c-0.3-0.3-0.5-0.5-0.3-0.9c2.3-1,4.2-2.5,6.1-4.3c0.7,0.9,1.3,1.7,2.2,2.3c0,0.5,0,1,0.1,1.4c0.1,0.3,0.3,0.6,0.5,0.8
		c0.6,0.7,0.9,1.7,1.8,2.1c1.2,0.7,0.6,1.9,1,2.9c-0.2,1.6,1.4,1.9,2.1,2.8c0.5,0.4,0.7,1.1,1.4,1.2c0.3,1.1,1,2.1,0.9,3.2
		c-1,1.1-0.6,2.2,0.1,3.2c0.2,0.2-0.4,0.7,0.4,0.7c0.4,0,0.9,0.4,1.3,0.6c0.9,1.6,0.8,3.5,1.4,5.3c0.1,0.4,0.1,0.7,0.2,1.1
		c0,0.5,0,1,0.3,1.5c0.3-1.6,0.2-3.2,0.2-4.8c0.1-1.2-0.3-2.4,0.5-3.5c1-0.1,0.7,0.7,0.8,1.2c0.3,1.2-0.3,2.4,0.6,3.6
		c0.3-2.2-0.7-4-1.2-5.9c0-0.2,0-0.4,0-0.6c0.1-0.7,0.4-1.4,0.6-2.1c0.6-1.3-0.1-2.5-0.4-3.8c-0.1-1.1-0.3-2.1,0.2-3.1
		c0.5-0.5,1.2-0.4,1.7-0.7c0.2,0,0.3,0,0.5,0.1c0.6,0.9,0.8-0.3,1.3-0.2c-0.5,0-0.9-0.1-1.2-0.6c-0.1-0.7-0.9-1.2-0.4-2.1
		c1.5-0.6,2.8,0.2,4.2,0.6c1.6,0.5,3.3,0.3,5,0.1c0.5-0.1,0.9-0.3,1.4-0.2c0.3,0.2,0.3,0.4,0.3,0.7c-0.4,0.4,0.1,1.2-0.5,1.5
		c-0.2,0.1-0.3,0.1-0.5,0.2c-0.6-0.1-0.8,0.3-0.9,0.9c-0.3,0.6-1.1,0.8-0.9,1.6c0.5,0.9,0.7,2,1.9,2.3c0.2,0,0.3,0.1,0.5,0.2
		c0.3,0.2,0.4,0.5,0.4,0.9c-0.3,0.5,0,1.2-0.5,1.7c-0.9,0.6-1.5,1.4-2,2.3c-0.5,0.7-0.8,1.2,0.1,1.8c1.3,1,2.2,2.3,2.5,4
		c-0.1,0.4-0.2,0.8-0.4,1.2c-0.2,0.4-0.5,0.8-0.5,1.3c0.1,0.5,0.4,0.8,0.8,1c0.2,0.1,0.4,0.3,0.6,0.4c0.4,0.7,0.4,1.5,0.3,2.3
		c-2.3,0.7-0.2,1.6-0.1,2.4c0.2,0.7,0.1,1.4,0.4,2.1c0.1,0.4,0.2,0.9,0.4,1.3c0.2,0.5,0.5,1,1.1,0.8c0.5-0.2,1.2-0.2,1.1-1
		c0-0.5,0-0.9,0.4-1.2c1.4-1.3,0.4-2.9,0.4-4.4c0-0.3-0.3-0.6-0.4-0.9c-0.2-0.7,0.3-1.4-0.1-2.1c-0.1-0.3-0.1-0.6-0.3-0.9
		c-0.1-0.1-0.2-0.2-0.3-0.4c0.1-2.4,0.5-4.7,1.1-6.9c0.1,0.1,0.3,0.2,0.3,0.1c0.3-0.3-0.1-0.6-0.2-0.8c1.4-4.5,2.8-9,4.1-13.5
		c1-0.6,0.7-1.5,0.7-2.4c0.1-0.2,0.1-0.5,0.2-0.7c0.7-0.3,1.3-0.7,0.7-1.6c0-1.1,0.7-1.2,1.3-0.7c1.5,1.1,3.3,1.7,5,2.6
		c-0.1,0.1-0.1,0.3,0,0.3c0.1,0,0.2-0.1,0.2-0.3c1.2,0.3,2.5,0.5,3.7,0.8c-0.8,1.5-1.7,3.1-2.5,4.6c-0.6-0.3-0.9-0.8-1.1-1.4
		c0.2,0.7,0.6,1.3,0.7,2.1c-0.3,1.3-0.6,2.5-0.8,3.8c-0.4,0.5,0.2,1.3-0.5,1.7c-0.5,0-0.5-0.8-1.1-0.5c-1,0.5-0.7,1.4-0.6,2.2
		c0.2,0.5,0.8,0.6,1,1.1c0.2,0.4,0.1,0.9,0,1.3c-0.2,0.6-0.2,1.2-0.6,1.7c-0.6-0.2-0.7,0.4-1.1,0.6c-0.7,0.4-1.4,0.7-2.2,1.4
		c0.5,0.6,1.2,0.9,1.6,1.5c0.3,0.2,0.6,0.5,0.7,0.8c0,0.3,0,0.6-0.1,0.8c-0.4,1.1-0.6,2.2-0.8,3.3c-1.1,4.2-1,8.5-1.2,12.7
		c-0.2,0.3-0.3,0.5,0,0.8c0.1,0.7-0.1,1.4,0.4,2.1c0.2,0.9,0.5,1.8,0.8,2.9c-2.8-0.1-5.4-0.3-8-0.7c-0.5-0.3-0.9-0.9-1.6-0.8
		c0.3,0.2,1,0,0.9,0.8c-3.6-0.1-7.2,0.2-10.8-0.3c0.1-0.1,0.1-0.2,0.2-0.2c0.2-0.2,0.5-0.2,0.8-0.3c0.4,0,0.7,0,1.1-0.1
		c0.4,0,0.7,0,1.1,0c0.6,0,1.2,0,1.9-0.1c1-0.2,2.1,0.2,2.9-0.6c-0.8,0-1.7,0.5-2.3-0.5c-1.4-1.1-2.8-1.1-4.1,0.2
		c-0.3,0.2-0.6,0.1-0.9,0c-0.2-0.1-0.4-0.1-0.5,0c-0.1,1.5-1.5,1.1-2.3,1.5c-4.7,0.4-9.5,0.1-14.2,0.3c0-0.1-0.1-0.2-0.1-0.2
		c0.1-0.1,0.1-0.2,0.2-0.2c0.5-0.3,1.1-0.3,1.7-0.3c0.3,0,0.6,0.1,0.9-0.1c-0.8,0.1-0.9-2.1-2.1-0.5c-1.2-0.1-0.6-1.2-1-1.8
		c-0.3-0.4-0.6-0.8-1-1.1c-0.6-0.2-0.9-0.8-1.3-1.1c0.8-4.2,0-8.5,0-12.7c0.3-0.3,0.7-0.4,1-0.1c0.3,0.3,0.5,0.5,0.7-0.1
		c0.1-0.5,0.3-1,0.7-1.4c0.5-0.4,0.6-0.6,0.1-1.1c-0.6-0.5-1.1-1.3-2-1.3c-0.4-0.4-0.7-0.3-0.9,0.1C29.7,71.9,29.4,70,29,68
		c0.5-0.7,1.2-1.4-0.4-1.5c-1.3-1.6-1.3-3.7-2.3-5.4C26.2,60.9,26.1,60.8,26,60.7z"/>
	<path class="st28" d="M40.2,65.7c0.2,0.4-0.2,0.9,0.3,1.1c0,0,0.1,0.1,0.1,0.1c0.1,0.2,0.2,0.2,0.3,0.1c0.4-1-0.1-2,0.3-3
		c0.2-3.3,0.6-6.6,1.6-9.9c-0.4-0.9,0.1-1.5,0.9-1.4C45,53,45,54,44.6,55c-0.1,0.6-0.1,1.2-0.1,1.8c0,0.3,0,0.6,0,0.9
		c-0.1,0.4-0.1,0.8-0.5,1.1c-0.6,1.1-0.3,2.3-0.3,3.5c0.2,0.6,0.1,1.3,0.2,1.9c-0.2,1.3-0.3,2.6-0.6,3.8c0,0.1,0,0.3,0,0.4
		c0.2,0.4,0.3,0.7,0,1.1c-0.5,1.3-0.2,2.6-0.4,3.9c-0.3,1.3,0,2.5-0.2,3.8c0,0.4,0.3,1.2-0.5,1.2c-0.6,0-0.7-0.6-0.7-1.2
		c0-0.3,0-0.5-0.2-0.7c0-0.3-0.1-0.6-0.1-1c-0.3-2.4-0.4-4.9-1.8-7.1c-0.5-0.7-0.8-1.8-0.1-2.7c0.1-0.1,0.3-0.3,0.4-0.4
		C40,65.4,40,65.6,40.2,65.7z"/>
	<path class="st29" d="M77.1,13.4c-0.5,0.3-1.1,0.2-1.4-0.2c-0.8-1.1-2.3-1.4-2.7-2.8c-0.8,0-0.4,1.1-1.3,1.1
		c-0.3-0.9,0.1-2.1-0.8-2.8c-1-0.6-0.4-1.1,0-1.7c1.8,0.2,3.5,0.8,5,2C75.8,10.7,77,11.9,77.1,13.4z"/>
	<path class="st2" d="M39.4,65.7c-0.1,2.1,1.5,3.7,1.7,5.8c0.1,1.3,0.2,2.7,0.2,4c-0.6-1.8-0.5-3.8-1.5-5.6
		c-0.3-0.2-0.5-0.5-0.7-0.8c-0.3-0.7-0.8-1.4-1-2.2c-0.1-0.4-0.2-0.9,0.1-1.3c-0.1-1.2-0.6-2.3-1.1-3.5c-0.5-0.2-0.6-0.7-0.8-1.1
		c-1-3.2-2.4-6.3-4.1-9.2c0-0.2,0.1-0.4,0.2-0.5c1.9,0.9,2.2,3,3,4.6C36.9,59.2,38.1,62.5,39.4,65.7z"/>
	<path class="st30" d="M71,7.1c0.1,0.6-0.4,1.1,0,1.7c-0.3,0.8-0.6,1.5-1.7,1.4c-1.1-0.1-1.3,0.9-1.5,1.6c-0.2,0.6-0.5,0.9-1,0.7
		c-1-0.4-0.1-0.7,0.1-1c0.3-0.5-0.2-0.6-0.5-0.8c-0.7-0.5-1.2-1-0.7-1.9c-0.1-0.1-0.1-0.2-0.1-0.3c0-0.1,0.1-0.1,0.1-0.1
		c0.7,0,1.3,0.7,2.2,0.5c0.2-0.5-0.5-1.1,0-1.6C68.9,6.5,69.9,6.8,71,7.1z"/>
	<path class="st31" d="M77.1,13.4c-1-1.3-2.2-2.4-1.2-4.2c1.2,1.1,2.6,2,3.4,3.5c-0.2,0.3-0.1,0.5,0,0.8c0,0.2,0,0.5-0.1,0.7
		c-0.1,0.1-0.3,0.2-0.4,0.1c-0.5-0.1-0.7-0.5-0.8-0.9C77.6,13.4,77.4,13.4,77.1,13.4z"/>
	<path class="st32" d="M31.7,9.9c0.6,0.2,1.5,0.2,1.1,1.2c-0.3,0.9-0.9,0.2-1.4,0.2c-0.4,0-0.8-0.2-1.3-0.3
		c-0.6-0.3-0.8-0.8-0.4-1.4c0.1-0.2,0.1-0.3,0.2-0.5c0.1-0.5,0.1-1-0.1-1.4c-0.1-0.4-0.9-0.6-0.4-1.2c0.5-0.2,1-0.3,1.5-0.5
		c-0.5,1.1,1.6,1.5,0.8,2.8C31.3,9.1,31.3,9.5,31.7,9.9z"/>
	<path class="st33" d="M42,53.5c-1.7-0.9-2.6-2.6-3.8-3.9c-0.2-0.3-0.5-0.4-0.7-0.7c0.2-0.7,0.9-1.2,0.7-2.1c1,1.2,1.6,2.7,3.1,3.5
		c0.4,0,0.5,0.1,0.3,0.5c-0.3,0.2-0.5,0.2-0.9,0.2C40.9,51.9,42.5,52.2,42,53.5z"/>
	<path class="st34" d="M25.1,9.9c-1-0.5-1.8-0.1-2.3,0.8c-0.4,0.6-0.7,1.3-1.5,1.5c-0.2-0.2-0.2-0.4-0.2-0.7
		c0.1-0.4,0.6-0.8,0.5-1.3c1.4-1.3,2.8-2.5,4.7-3C27,8.6,26.6,9.5,25.1,9.9z"/>
	<path class="st35" d="M10.9,26.8c-0.6,1.5-1.9,2.5-2.7,3.9c0.2,0.3,0,0.5-0.3,0.5c-0.3,0-0.6-0.2-0.5-0.4c0.6-1.3-0.5-0.4-0.8-0.6
		c-0.2-0.1-0.3-0.2-0.4-0.3c0.5-1,1.2-1.8,2.3-2.2C9.3,27.4,9.8,26,10.9,26.8z"/>
	<path class="st36" d="M10.9,26.8c-1-0.4-1.4,1.2-2.4,0.8c1.1-2,3.1-2.9,5-3.9c0.3,0.1,0.5,0.2,0.6,0.5c0.2,0.8-0.8,0.8-0.9,1.4
		c-0.5,0.6-1,1.2-2,0.9C11.2,26.6,11,26.7,10.9,26.8z"/>
	<path class="st37" d="M14,24.1c-0.1-0.1-0.3-0.3-0.4-0.4c0.5-0.9,1.3-1.5,2.2-1.9c0.7-0.2,1.3-0.7,2-0.7c0.2,0.5,1,0.4,0.9,1.2
		c-1.1-0.3-1.7,0.3-2.1,1.2c-0.2,0.3,0,0.7-0.4,0.9c-0.5,0.1-1-0.3-1.5-0.2c-0.1,0.1-0.3,0.1-0.4,0.2C14.2,24.3,14.1,24.3,14,24.1z"
		/>
	<path class="st38" d="M8.2,45.3c1,0.2,1.5,1,2.3,1.6c0.2,0.5,0.9,0.9,0.4,1.6C9.4,47.7,8,46.8,7,45.3C7.3,44.6,7.4,44.6,8.2,45.3z"
		/>
	<path class="st39" d="M67.8,7.1c0,0.9,0.7,1.4,0.9,2.4c-1.1-0.6-2.5,0.1-3.2-1.2c-0.1-0.1-0.1-0.2-0.1-0.3c0-0.1,0-0.2,0-0.2
		c0.2-0.2,0.5-0.3,0.2-0.6c-0.1-0.1-0.1-0.1-0.2-0.1C66.3,6.3,67.1,7.2,67.8,7.1z"/>
	<path class="st40" d="M10.9,48.4c-0.1-0.5-0.2-1.1-0.4-1.6c0.6,0.1,1.4,2.1,1.9-0.7c0.5,1.5,1.2,2.2,1.1,3.4
		C12.6,49.4,11.7,49.1,10.9,48.4z"/>
	<path class="st41" d="M5.2,33.7c0.4,1,1.4,2.1-0.1,3.1c-0.8,0.2-1.3,0.1-1.2-0.9c0-0.7-0.1-1.5,0.4-2.2C4.6,34.7,4.9,33.5,5.2,33.7
		z"/>
	<path class="st42" d="M21.3,11.4c0,0.3,0,0.5,0,0.8c-0.4,0.3-0.4,0.5,0,0.8c0.2,0.2,0.2,0.4,0.2,0.7c-0.1,0.1-0.2,0.2-0.4,0.3
		c-0.5,0-0.9,0.2-1.3,0.4c-0.2,0-0.3,0-0.5-0.1c-0.2-0.1-0.4-0.3-0.5-0.6c0.5-0.9,0.8-2.1,2-2.3C21,11.3,21.2,11.3,21.3,11.4z"/>
	<path class="st43" d="M18.8,13.7c0.2,0.1,0.4,0.3,0.6,0.4c0.3,0.2,0.6,0.4,0.5,0.8c-0.1,0.2-0.2,0.5-0.4,0.7
		c-0.4,0.5-0.5,1.1-0.9,1.6c-0.1,0.2-0.3,0.6-0.3,0.6c-0.8-0.2-0.3-0.9-0.5-1.4C17.8,15.4,18.2,14.5,18.8,13.7z"/>
	<path class="st44" d="M29.4,6.5c-0.2,0.7,1,0.4,0.8,1.1c-0.6,1.2-1.9,0.8-2.8,1.3c-0.9-0.3-0.9-1-0.6-1.7c0.2-0.3,0.5-0.3,0.8-0.3
		c0.6,0.3,1.1-0.1,1.5-0.4C29.1,6.5,29.2,6.5,29.4,6.5z"/>
	<path class="st45" d="M26.7,7.1c0,0.7,0,1.3,0.8,1.6c0.4-0.1,0.5,0.1,0.4,0.4c-1.7-0.4-1.4,2-2.9,2c0.1-0.4,0.2-0.8,0.2-1.2
		c1-0.6,1.2-1.6,1.2-2.7C26.4,7.1,26.5,7.1,26.7,7.1z"/>
	<path class="st46" d="M6.7,31.9c-0.9,0.2-0.5,1.5-1.5,1.5c-0.4-0.1-0.4-0.5-0.5-0.8c0.3-1,0.8-2,1.5-2.7c0,0.1,0.1,0.1,0.1,0.2
		c0.4,0.5,0.5,1.1,0.4,1.7C6.7,31.7,6.7,31.8,6.7,31.9z"/>
	<path class="st47" d="M4.7,38.8c1.8,1.1,1.6,2.4,0.4,3.8c-0.2-0.4-0.3-0.7-0.5-1.1C4.9,40.6,4.3,39.7,4.7,38.8z"/>
	<path class="st24" d="M23.6,55.3c0.4,1.2,1.6,2.1,1.5,3.5c-0.2-0.3-0.5-0.5-0.7-0.8c-0.6-0.6-1-1.4-1.2-2.3
		c-0.1-0.1-0.1-0.2-0.1-0.3c0-0.1,0-0.2,0.1-0.2C23.3,55.2,23.5,55.2,23.6,55.3z"/>
	<path class="st48" d="M52.5,3c0.5-0.2,0.8,0.3,1.1,0.4c0.2,0.5-0.4,0.5-0.5,0.7c-0.1,0.1-0.2,0.2-0.4,0.3c-0.9,0-1.7,0.1-2.5-0.2
		C50,4.1,50,3.9,49.9,3.7c0-0.2,0.1-0.3,0.2-0.5c0.5-0.3,1.1-0.2,1.6-0.4C52,2.8,52.3,2.8,52.5,3z"/>
	<path class="st49" d="M4.7,38.8c0.3,0.9,0.8,1.9-0.1,2.7c-0.6-0.9-0.8-2-0.7-3.1C3.9,38.2,3.9,38,4.2,38c0.3,0,0.2,0.2,0.2,0.4
		C4.5,38.5,4.6,38.6,4.7,38.8z"/>
	<path class="st50" d="M4.4,38.4c-0.2-0.3-0.3-0.2-0.4,0c-0.4-0.8-0.4-1.7,0-2.5c0.1,0.7,0.8,0.7,1.2,0.9C5.1,37.5,4.8,38,4.4,38.4z
		"/>
	<path class="st51" d="M34.8,47.6c-0.5-0.1-0.8-0.3-0.5-0.8c0.2-0.4,0.4-0.8,1-0.6c0.4,0.1,0.8,0.2,1.2,0.3
		C36,47.1,35.4,47.4,34.8,47.6z"/>
	<path class="st52" d="M8.2,45.3c-0.4-0.1-0.8-0.6-1.2,0.1c-0.7-0.5-1.3-1.1-1.5-2C6.9,43.3,7.4,44.5,8.2,45.3z"/>
	<path class="st2" d="M34.8,51.1c-0.9,2.5,0.3,3.4,1.6,3.8C35.4,54.3,34.2,53.5,34.8,51.1z"/>
	<path class="st53" d="M50.2,3.4c0,0.1,0,0.3,0,0.4c-0.3,0.4-0.8,0.1-1.1,0.4c-0.8,0-0.3-0.9-0.8-1.1c0.5-0.4,1-0.4,1.6-0.3
		C50.1,2.8,50.4,2.9,50.2,3.4z"/>
	<path class="st54" d="M79,14.1c0-0.3,0-0.5-0.1-0.8c0.3-0.3,0.6-0.2,0.8,0c0.5,0.5,0.8,1.2,0.8,1.9c-0.1,0.1-0.3,0.2-0.5,0.2
		C79.5,15.2,79,14.9,79,14.1z"/>
	<path class="st55" d="M32.5,51.5c0,0.1,0,0.3,0,0.4c-0.2,0.4-0.3,0.9-0.6,1.2c-0.3,0.2-0.6,0.3-0.9,0.3c-0.3-0.2-0.4-0.5-0.4-0.8
		c0.1-0.7,0.1-1.5,1.3-1.2C32,51.4,32.3,51.4,32.5,51.5z"/>
	<path class="st56" d="M23.2,55.3c0,0.1,0,0.3,0,0.4c-0.4-0.6-0.9-1.2-1.3-1.8c-0.3-0.5-0.2-0.8,0.4-0.9c0.1,0.2,0.2,0.5,0.4,0.7
		C22.9,54.2,23.8,54.5,23.2,55.3z"/>
	<path class="st57" d="M52.9,4.1c0.2-0.2,0.5-0.5,0.7-0.7c0.5-0.2,0.9-0.1,1.2,0.3c-0.3,0.2,1.3,0.8-0.1,0.8c-0.5,0-0.9-0.2-1.4-0.3
		C53.1,4.3,53,4.3,52.9,4.1z"/>
	<path class="st58" d="M31.8,51.4c-0.8,0-0.7,0.9-1.3,1.2C30,52,30,51.5,30.7,51C31.1,51.1,31.5,51,31.8,51.4z"/>
	<path class="st59" d="M17.8,21.1c-0.5,0.7-1.2,0.9-2,0.7c0.6-0.5,1.1-1,1.7-1.5C17.8,20.4,17.9,20.7,17.8,21.1z"/>
	<path class="st60" d="M4.7,32.6c0.4,0.2,0.4,0.5,0.5,0.8c0,0.1,0,0.2,0,0.3c-0.3,0.4-0.6,1-0.8,0C4.4,33.3,4.2,32.8,4.7,32.6z"/>
	<path class="st61" d="M29,6.5c-0.4,0.6-0.7,1.8-1.5,0.4C27.9,6.5,28.4,6.3,29,6.5z"/>
	<path class="st62" d="M84,18.4c-0.7-0.3-1.6,0.3-2.2-0.4c0.6,0,1.1-0.1,1.1-0.8c0.1,0,0.2,0,0.4,0.1C83.2,17.8,83.8,18,84,18.4z"/>
	<path class="st2" d="M40.2,65.7c-0.1-0.1-0.3-0.3-0.4-0.4c-0.4-0.6-0.4-1.3-0.4-1.9C40,64,40.2,64.8,40.2,65.7z"/>
	<path class="st63" d="M21.3,11.4c-0.2,0-0.3,0-0.5,0c0-0.6,0.3-0.9,0.8-1.2C22.4,10.9,21.8,11.1,21.3,11.4z"/>
	<path class="st2" d="M36.4,54.8c0.5,0.6,0.7,1.2,0.8,2C36.4,56.4,36.3,55.7,36.4,54.8z"/>
	<path class="st64" d="M50.2,3.4c-0.1-0.2-0.2-0.5-0.4-0.7c0.3,0,0.5,0,0.8,0c0.3,0.3,0.9-0.1,1.1,0.4C51.3,3.5,50.7,3.3,50.2,3.4z"
		/>
	<path class="st65" d="M17.5,18.4c0.8,0.5,0.8,1,0,1.5C17.5,19.4,17.5,18.9,17.5,18.4z"/>
	<path class="st2" d="M37.2,56.8c0.4,0.6,0.7,1.2,0.7,2C37.2,58.2,37,57.6,37.2,56.8z"/>
	<path class="st66" d="M79.8,13.4c-0.3,0-0.6,0-0.8,0c-0.5-0.5-0.1-0.7,0.3-0.8C79.5,12.9,79.7,13.1,79.8,13.4z"/>
	<path class="st67" d="M51.7,3c-0.4,0-0.8,0-1.1-0.4c0.7,0,1.4-0.2,1.9,0.3C52.2,3,51.9,3,51.7,3z"/>
	<path class="st68" d="M80.2,15.3c0.1,0,0.3,0,0.4,0c0.4,0.3,0.3,0.8,0.4,1.1c-0.2,0-0.3,0-0.5,0C80.1,16.2,79.8,15.8,80.2,15.3z"/>
	<path class="st69" d="M42,53.5c-0.1-0.7-0.7-1-1.1-1.5c-0.3-0.4-0.9-0.7-0.7-1.2c0.3-0.6,0.9,0.1,1.3-0.1c0.1,0,0.2,0,0.3,0
		c0.4,0.1,0.8,0.4,0.9,0.8c4.1,2.9,8.4,3.9,13.3,2.3c0.1-0.2,0.2-0.3,0.3-0.4c1.4-0.6,2.6-1.5,4-2.2c0.3-0.2,0.6-0.3,1-0.3
		c1.6,0.2,1.2,1.2,0.9,2.1c-0.1,0.2-0.1,0.4-0.3,0.5c-2.1,1.1-3.1,2.9-3.1,5.2c-0.1,0.1-0.3,0.2-0.5,0.1c-0.1-1.4-0.1-2.7-0.2-4.2
		c-1,0.4-0.3,1.4-0.9,1.8c-0.4-0.2-0.9-0.1-1.2-0.3c-0.4,0.1-0.8,0.2-1.2,0.4c-1.8,0.3-3.6,0.2-5.4,0c-1.4-0.3-2.7-1-4.2-0.8
		c-0.3,0.1-0.5,0-0.6-0.2c-0.2-0.2-0.3-0.4-0.5-0.5c-0.2-0.6,1.1-1.2,0-1.7c-1-0.4-1,0.4-1.2,1C42.6,54,42.3,53.8,42,53.5z"/>
	<path class="st70" d="M92.5,33.4c-0.8,0-1.6,0.9-2.4-0.1c1.1-0.3,2.2-2.6,1.7-3.5c-0.4-0.7-0.7,1.2-1.2,0.1
		c-0.4-0.9-1.5-1.1-1.9-1.9c-0.2-1.3-0.1-2.4,1.2-3.1c0.5-0.2,1-0.1,1.5-0.3c0.5,0.3,0.7,0.8,0.8,1.4c-0.1,0.1-0.2,0.2-0.3,0.2
		c0.1,0,0.2-0.1,0.3-0.2c1,1.2,1.4,2.8,1.8,4.3c-0.3,0.2-0.8,0.3-0.7,0.8c0.1,0.3,0.5,0.3,0.8,0.3c0.4,0.3,0.3,0.8,0.3,1.3
		c-0.1,1.2-0.9,0.3-1.4,0.4C92.8,33,92.7,33.2,92.5,33.4z"/>
	<path class="st71" d="M71,49.1c0.2-1.3-1.4-1.8-1.4-3.1c0.6,0,1.2,0.1,1.8-0.3c0.3-0.4,0.1-1.1,0.5-1.5c0.8-0.6,1.2-2,2.6-1.6
		c-0.2,0.7,0.6,0.7,0.7,1.1c-0.5,1.2-0.2,2.6-1.2,3.7c-0.5,0.6,0.3,0.8,0.4,1.3c0.1,0.5,1,1,0,1.5C73.2,50,72.1,49.6,71,49.1z"/>
	<path class="st72" d="M55.9,74.2c-0.4-1.6-1.3-3-2.6-3.8c-1.6-0.9-1-1.5-0.1-2.4c0.7-0.1,0.8,0.5,1.1,0.9c0.2,0.6,0.5,1.2,1,1.6
		c0.2,0.2,0.4,0.5,0.5,0.8c0.1,0.6,0,1.2,0.5,1.6c0.4,0.9,0.3,1.8,0.3,2.7c-0.2,0.1-0.3,0.1-0.5,0C55.9,75.2,55.8,74.7,55.9,74.2z"
		/>
	<path class="st73" d="M90.5,52.3c-0.9,0.4-0.8-0.5-1.2-0.9c0.7-0.5,1.5-1,2.2-1.5c0.3-0.2,0.6-0.1,0.8,0.1c0.3,0.1,0.5-0.2,0.8,0
		c0,0.3,0,0.5,0,0.8C93,52.3,91.8,52.3,90.5,52.3z"/>
	<path class="st74" d="M88.6,48.8c-0.5,0-1,0-1.5,0c0.4-2.2,1.5-3.1,3.5-1.5C90.1,47.9,89.4,48.4,88.6,48.8z"/>
	<path class="st75" d="M63.7,51.8c-0.7-0.1-1,0.6-1.5,0.8c0-0.7-0.1-1.3-0.8-1.6c-0.1-0.2-0.1-0.3,0-0.5c0.4-0.5,0.8-1,1.5-0.7
		c0.1,0.3,0,0.9,0.6,0.5c0.5-0.3,0.7-0.9,1.4-1C65.1,50.4,63.6,50.8,63.7,51.8z"/>
	<path class="st76" d="M56.7,82.6c-0.2-0.1-0.3-0.2-0.5-0.3c-0.4-0.5-1-1-0.7-1.6c0.3-0.7,1-0.2,1.5-0.3c0.2,0.4,0.5,0.8,0.7,1.2
		c0.3,0.4,0.4,0.8,0.1,1.2C57.5,83,57.1,83,56.7,82.6z"/>
	<path class="st10" d="M92.9,32.2c0.5,0,0.8,1.2,1.6,0.4c0.5,0.7,0.4,1.5,0.3,2.3c-0.9,0.5-1.3-0.4-1.9-0.8
		C92.6,33.5,92.5,32.9,92.9,32.2z"/>
	<path class="st77" d="M87.1,21.1c-1.9,0.4-2.1-1.5-3-2.4c1.6-0.2,2.4,1.1,3.5,1.9C87.6,21,87.5,21.2,87.1,21.1z"/>
	<path class="st78" d="M87.1,21.1c0.1-0.2,0.3-0.3,0.4-0.5c1.1,0.3,1.7,1.1,2.2,2c-0.4,0.5-0.8,1-1.4,1.3c-0.2,0.1-0.3,0-0.5-0.1
		C88.5,22.6,87.4,22,87.1,21.1z"/>
	<path class="st79" d="M62.8,49.8c-0.7,0-0.9,0.7-1.5,0.9c-0.3-0.2-0.5-0.5-0.6-0.8c-0.1-0.4-0.1-0.7,0-1.1c0.1-0.2,0.2-0.3,0.3-0.4
		c0.8-0.3,1.6-0.6,2.1,0.4c0,0.1,0,0.2,0.1,0.3C63.1,49.4,63,49.6,62.8,49.8z"/>
	<path class="st75" d="M63.9,48.7c1.6-2.3,1.2-2.7,4-1.1C66.3,47.2,65,47.7,63.9,48.7z"/>
	<path class="st80" d="M74.4,50.2c0.7-0.5-0.9-1,0-1.5c0.1,0,0.2,0,0.4,0c0.8,0.2,2,0,1.6,1.5c0,0.1,0,0.2,0,0.3
		C75.6,50.8,75.1,50.3,74.4,50.2z"/>
	<path class="st81" d="M55.9,64.2c-0.1-0.3-0.3-0.5-0.4-0.8c0.2-0.2,0.5-0.2,0.7,0c0,2.2,0,4.4,0,6.5c-0.8-0.1-0.7-0.8-0.8-1.3
		C55.3,67.1,55.6,65.6,55.9,64.2z"/>
	<path class="st82" d="M65.8,52.5c1.2,0.5,0,1.6,0.6,2.4c0.1,0.2-0.8,0.2-1.3,0C65.1,54.1,65.5,53.3,65.8,52.5z"/>
	<path class="st83" d="M88.3,23.7c0.3-0.6,0.7-1.1,1.5-1.1c0.2,0.5,0.9,0.8,0.8,1.5c0.1,0.9-0.6,0.5-0.9,0.6
		C89.1,24.6,88.6,24.3,88.3,23.7z"/>
	<path class="st84" d="M55.9,68.9c0,0.4,0,0.8,0.4,1.1c0,0.8,0,1.5,0.1,2.3c-0.7,0.2-0.4-0.6-0.7-0.8c-0.1-0.2-0.3-0.5-0.4-0.7
		c-0.5-0.7-0.3-1.3,0.2-1.9C55.6,68.7,55.7,68.7,55.9,68.9z"/>
	<path class="st85" d="M58.6,81.5c0.2-0.6,0.3-1.3,0.8-1.8c0.1,0,0.2-0.1,0.3-0.1c0.4,0.2,0.5,0.5,0.6,0.9c0.1,0.6,0.1,1.2-0.3,1.7
		c-0.5,0.4-0.9,0.1-1.3-0.2C58.5,81.8,58.5,81.7,58.6,81.5z"/>
	<path class="st86" d="M94.1,31.3c-0.5,0.6-1,0.1-1.5,0.1c0,0-0.1-0.5,0-0.7c0.3-0.6,0.8-0.8,1.4-0.4C94,30.6,94.1,31,94.1,31.3z"/>
	<path class="st87" d="M66.7,50.3c0.3,0.5,0.8-0.1,1.3,0.2c-0.3,1-0.9,1.5-2,1.4C66.3,51.3,66.1,50.6,66.7,50.3z"/>
	<path class="st88" d="M56.4,60.5c0,0.3-0.1,0.7-0.1,1c-0.3,0.1-0.5-0.1-0.7-0.2c-0.4-0.5-0.9-0.8-1.2-1.4c0.5-1,1.2-1.2,2.1-0.6
		C56.5,59.7,56.5,60.1,56.4,60.5z"/>
	<path class="st16" d="M93.3,49.9c-0.4-0.1-0.3,0.8-0.8,0.4c-0.4-0.4-0.1-0.8,0-1.2c0.3-0.3,0.5-0.5,0.8-0.8c0.1,0,0.3,0,0.4,0
		c0.4,0.3,0,0.8,0.4,1.1c0.1,0,0.3,0,0.4,0C94.2,50,93.7,49.9,93.3,49.9z"/>
	<path class="st89" d="M84.1,50.7c-0.4,0-0.8,0-1.2-0.1c-0.3-1.1,0.1-1.4,1.2-1.1c0.3,0.5,0.8,0.4,1.2,0.4
		C85.2,50.8,84.7,50.8,84.1,50.7z"/>
	<path class="st90" d="M56.3,75.7c0.1,0,0.2,0,0.3,0c0,0.8,0.1,1.5,0.1,2.3c-0.3,0-0.5,0-0.8,0c-0.2-0.4-0.5-0.7-0.6-1.1
		c0.1-0.4,0.2-0.9,0.5-1.2C56,75.6,56.2,75.6,56.3,75.7z"/>
	<path class="st91" d="M55.5,58c0.1-0.4,0.2-0.8,0.3-1.2c0.2-0.2,0.5-0.5,0.8-0.3c0.3,0.2,0.2,0.5,0.1,0.8c0,0.2-0.1,0.5-0.1,0.7
		c-0.1,0.2-0.2,0.5-0.4,0.7c-0.2,0.1-0.4,0.3-0.7,0.1C55.3,58.5,55.3,58.2,55.5,58z"/>
	<path class="st92" d="M59.7,76.1c0.1,0,0.3,0,0.4,0.1c0.4,0.5,0,1.2,0.2,1.7c-0.1,0.4-0.4,0.7-0.8,0.7c-0.5-0.4-0.4-0.8-0.2-1.3
		C59.4,76.8,59.2,76.3,59.7,76.1z"/>
	<path class="st93" d="M61,68.4c0.3,0.2,0.8,0.4,0.9,0.7c0.2,0.5-0.2,0.9-0.6,0.9c-0.6,0-0.2-0.6-0.4-0.9C60.9,68.9,61,68.6,61,68.4
		z"/>
	<path class="st85" d="M55.9,61.1c0.1,0.1,0.2,0.3,0.4,0.4c0,0.1,0,0.3,0,0.4c-0.4,0.4-0.2,1.2-1,1.2c-0.6-0.5-0.5-1-0.4-1.7
		C55.1,61,55.4,60.8,55.9,61.1z"/>
	<path class="st94" d="M59.4,77.2c0.1,0.4-0.1,0.9,0.4,1.2c1.1,0.8,0.2,0.9-0.4,1.1c0,0-0.1,0.1-0.1,0.1C58.7,78.8,59,78,59.4,77.2z
		"/>
	<path class="st95" d="M58.6,81.5c0,0.1,0.1,0.3,0.1,0.4c0.2,0.4,0.3,0.7,0,1.1c-0.2,0.2-0.5,0.3-0.8,0.1c-0.2-0.1-0.2-0.3-0.1-0.5
		c0-0.4,0-0.8,0-1.1C58.1,81.5,58.3,81.5,58.6,81.5z"/>
	<path class="st29" d="M73.3,52.3c0.2,0.5,0.3,0.9-0.3,1c-0.2,0-0.5,0-0.5-0.1c-0.2-0.5,0.2-0.8,0.5-1.1
		C73.1,52.1,73.2,52.2,73.3,52.3z"/>
	<path class="st96" d="M89.8,24.6c0.3-0.2,0.5-0.3,0.8-0.5c0.2,0.2,0.5,0.4,0.7,0.6c-0.1,0.8-0.8,0.3-1.1,0.7
		C90,25.1,89.6,25,89.8,24.6z"/>
	<path class="st97" d="M56.8,57.3c0-0.6-0.4-0.7-0.9-0.5c0-0.2,0-0.5,0.1-0.7c0.4,0,1.1-0.7,1.2,0.3C57,56.8,56.9,57,56.8,57.3z"/>
	<path class="st91" d="M55.5,63c0-0.5,0.2-0.9,0.7-1.1c0,0.5,0,1,0,1.5c-0.2,0-0.5,0-0.7,0c0,0,0,0,0,0c-0.1-0.1-0.2-0.2-0.1-0.3
		C55.5,63.1,55.5,63,55.5,63z"/>
	<path class="st97" d="M56.3,58.4c0.1-0.1,0.2-0.3,0.3-0.4c0.1,0.8,0.2,1.7-0.3,2.5c0-0.4,0-0.9-0.1-1.3
		C56.1,58.9,56.1,58.7,56.3,58.4z"/>
	<path class="st98" d="M92.5,49.1c0.5,0.4-0.1,0.8,0,1.2c-0.3-0.1-0.6-0.3-0.9-0.4C91.9,49.6,92.2,49.4,92.5,49.1z"/>
	<path class="st83" d="M55.6,71.5c0.2,0.3,0.5,0.5,0.7,0.8c0,0.3,0.1,0.5,0.1,0.8C55.6,72.8,55.5,72.2,55.6,71.5z"/>
	<path class="st99" d="M30.9,73.4c2-0.2,2.2,1.8,3.4,2.7c-1.3-0.5-1.5,0.7-1.6,1.2c-0.1,0.8-0.3,1.3-1.1,1.4
		c-1.1,0.1,0.1-0.9-0.5-1.1c-0.2,0-0.4,0-0.6,0c0-0.1,0-0.3,0-0.4c0.3-0.4,0.8-0.4,1.2-0.7c0.2-0.3,0.3-0.5,0.1-0.8
		c-0.1-0.1-0.2-0.2-0.3-0.4c-0.2-0.3-0.3-0.5-0.5-0.8C30.9,74.2,30.6,73.8,30.9,73.4z"/>
	<path class="st100" d="M29.4,94.2c0.4-1.2,0.7-2.3,1.1-3.5c0.2,0.1,0.3,0.2,0.4,0.4c0.2,0.3,0.1,0.8,0.7,0.6c0.3,0,0.5,0.1,0.7,0.3
		c0.2,0.4,0.2,0.9,0.2,1.3c-0.1,0.7,0,1.6-1.2,1.6C30.6,94.8,29.9,94.7,29.4,94.2z"/>
	<path class="st101" d="M28.6,66.5c0.1-0.3,0.1-0.8,0.2-0.9c0.9-0.2,0.6,1.3,1.6,1.2c0.1,0,0,0.4-0.2,0.6C29.9,67.8,29.5,68,29,68
		C28.7,67.6,28.6,67.1,28.6,66.5z"/>
	<path class="st102" d="M32.1,76.9c-0.4,0.6-1,0.3-1.5,0.4c-0.4-0.9-0.4-1.8-0.3-2.7c0.2-0.1,0.3-0.1,0.5,0c0.4,0.2,0,1.5,1.1,0.7
		c0.1,0,0.2,0,0.4,0C32.4,75.8,32.4,76.4,32.1,76.9z"/>
	<path class="st103" d="M29.4,94.2c0.7,0,1.3,0,1.9,0.4c0.2,0.3,0.2,0.5,0,0.8c-0.8-0.1-1.8,0.7-2.1-0.8
		C29.3,94.4,29.4,94.3,29.4,94.2z"/>
	<path class="st104" d="M32,91.9c-0.2,0-0.5,0-0.7,0c-0.3-0.1-0.5-0.4-0.7-0.7c0-0.2-0.1-0.3-0.1-0.5c0-0.1,0-0.3,0.1-0.4
		c1.1-0.9,0.7,1.1,1.5,0.8C32.3,91.4,32.3,91.7,32,91.9z"/>
	<path class="st105" d="M30.5,74.5c-0.1,0-0.2,0-0.3,0c0-0.2-0.1-0.5-0.1-0.7c0.1-0.5,0.3-0.8,0.9-0.4c0.1,0.4,0.3,0.8,0.4,1.2
		C31.1,74.8,30.8,74.6,30.5,74.5z"/>
	<path class="st106" d="M47.5,95.4c1.1-0.4,2-1.1,2.3-2.3c0.4,0.7,0.7,1.5,0.1,2.2c0,0.1-0.1,0.1-0.1,0.2
		C49,95.4,48.2,95.4,47.5,95.4z"/>
	<path class="st107" d="M60.5,95.7c-0.4-0.6-1.1-0.2-1.6-0.4c1.2-1.1,1.2-1.1,2.4,0.5C61.1,95.7,60.8,95.7,60.5,95.7z"/>
	<path class="st22" d="M71.7,68c0-0.5,0-1,0-1.5c-0.1-0.1-0.2-0.3-0.1-0.4c0.1-0.3,0.2-0.6,0.3-0.9c0.2-0.4,0.2-1,0.7-1.3
		c0.2-0.6,0.5-1.1,0.7-1.7c-0.1,2.4-0.7,4.8-1.5,7C71.4,68.8,71.5,68.4,71.7,68z"/>
	<path class="st13" d="M71.7,68c0,0.4,0,0.8,0,1.2c0,0.2,0,0.5,0,0.7c-0.3,1,0.1,2.2-0.7,3.1c-0.1,0.5-0.3,1-0.4,1.5
		c-0.1,0.1-0.3,0.1-0.4,0c0-0.3,0-0.5,0-0.8c-0.3-0.5,0-1.1,0-1.6c0-0.3,0.1-0.5,0.1-0.8c0.3-0.6,0.1-1.3,0.8-1.7
		C71.3,69.1,71.5,68.5,71.7,68z"/>
	<path class="st108" d="M74.1,58.4c-0.9-0.9-1.4-2-0.5-3.8c0.1,1.5,0.4,2.3,0.9,3.1C74.3,57.9,74.2,58.2,74.1,58.4z"/>
	<path class="st109" d="M71,73.1c0.1-1.1,0.2-2.1,0.7-3.1c0,0.4-0.1,0.8,0.4,1.1c-0.1,0.7-0.2,1.4-0.7,2C71.2,73,71.1,73,71,73.1z"
		/>
	<path class="st109" d="M70.2,74.6c0.1,0,0.3,0,0.4,0c-0.4,1.2-0.8,2.3-1.2,3.5C69.3,76.8,69.6,75.7,70.2,74.6z"/>
	<path class="st109" d="M71.4,76.2c-0.1,0.6,0,1.3-0.4,1.9c0-1-0.3-1.9,0.3-2.8C71.3,75.6,71.4,75.9,71.4,76.2z"/>
	<path class="st110" d="M68.2,91.5c-0.3,0-0.8,0.1-0.8-0.2c0-0.5,0.4-0.5,0.8-0.5C68.2,91,68.2,91.2,68.2,91.5z"/>
	<path class="st17" d="M96.8,45.7c0.1,1,0.3,2.1-1.2,2.3C95.1,46.8,95.9,46.2,96.8,45.7z"/>
	<path class="st17" d="M95.6,48c-0.4,1.5-0.8,0.1-1.2,0C94.8,47.4,95.2,47.9,95.6,48z"/>
	<path class="st17" d="M94,49.5c-0.5-0.3-0.4-0.7-0.4-1.1c0.2-0.1,0.5-0.3,0.7-0.4C94.3,48.5,94.2,49,94,49.5z"/>
	<path class="st111" d="M31.3,95.4c0-0.3,0-0.5,0-0.8c1,0.1,0.4-0.9,0.8-1.2c0.4-0.4,0.6-0.9,1.2-1.2c0.8,0.5-0.2,1.4,0.4,1.9
		c0.2,0.2,0.3,0.4,0.2,0.6c-0.1,0.3-0.3,0.3-0.5,0.4c-0.1,0.1-0.1,0.1-0.2,0.2C32.6,95.4,31.9,95.4,31.3,95.4z"/>
	<path class="st112" d="M60.5,51.5c-1.2,1.1-2.6,1.8-4.2,2.3c-0.2-0.1-0.5-0.2-0.6-0.4c-0.2-1-1-0.9-1.7-1.1c-0.3-0.2-0.2-0.4,0-0.8
		c0.6-1.2,0.3-1.7-0.9-2.1c-0.4-0.1-0.7-0.3-0.7-0.8c0-0.1,0.5-0.1,0.8-0.2c0.3-0.1,0.4-0.6,0.8-0.6c1.2-0.4,0-0.9,0.1-1.4
		c0.1-0.6-0.1-1.3,0.3-1.9c0.2-0.8-1.3-2.5,1.2-1.9c0.8,0.5,0.6,1.3,0.5,2c-0.3,1.2,0.7,0.7,1.2,0.9c0.6,1.6,2.2,1.5,3.4,2
		c0.3,0.4,0.6,0.8,0.2,1.3l0,0c-0.6,0.3,0,0.9-0.2,1.3C60.3,50.5,60.1,50.9,60.5,51.5z"/>
	<path class="st32" d="M60.6,47.6c-0.2,0-0.4,0-0.6,0c-1.6,0.4-2.5-0.5-2.9-1.9c-0.5-0.2-0.7-0.8-1.2-1.2c-0.1-0.6-0.3-1.3-0.4-1.9
		c1.6,0.7,3.1,1.5,4.6-0.3c0.7,0.6,0.3,1.2,0.4,1.8l0,0c-0.3,0.2-0.4,0.5-0.4,0.8c-0.3,0.4-0.3,1.2-1.2,0.8c0,0-0.4-0.3-0.1,0.1
		c0.1,0.1,0.2,0.2,0.3,0.2c0.4,0.2,0.8,0.3,1.2,0.5C60.7,46.9,61.4,47.1,60.6,47.6z"/>
	<path class="st112" d="M65.9,40.7c0.2-0.9,1.9-1.6,0.4-2.7c-0.2-0.3-0.2-0.5,0-0.8c0.8,0.7,2.3-0.3,2.7,1.2
		c0.1,0.4,0.1,0.8-0.3,1.1c-0.2,0.2-1,0.1-0.2,0.7c0.1,0.2,0.1,0.3,0.1,0.5c-0.2,0.7,0.6,1.3,0.1,1.9c0,0.2,0,0.4,0,0.6
		c-0.1,0.5,0.2,1.2-0.5,1.3c-0.7,0.1-0.7-0.5-0.9-1c-0.2-0.8-0.6-1.5-1.3-2C65.7,41.2,65.7,40.9,65.9,40.7z"/>
	<path class="st113" d="M61.7,33.8c0.3,0,0.5,0,0.8,0c0.9,0,0.3,0.5,0.2,0.8c-0.2,0.5-1,0.4-1,1.2c-0.2,0.3,0.5,1.1-0.2,1
		c-1.4-0.3-0.8,1.1-1.4,1.3c-0.5-2.5-0.4-3.1,0.9-4.2C61.2,33.7,61.5,33.5,61.7,33.8z"/>
	<path class="st45" d="M21.3,13.7c0-0.3,0-0.5,0-0.8c1.3-0.2,2.6-0.4,4.4,0.4c-2.5-0.3-2.4,3-4.7,2.3c-0.4-0.1-0.6-0.3-0.7-0.7
		c-0.1-0.3-0.3-0.6-0.5-0.9c0.3-0.3,0.6-0.8,1.2-0.4c0.1,0.1,0.2,0.2,0.3,0.3C21.3,14,21.4,13.9,21.3,13.7z"/>
	<path class="st113" d="M52.9,4.1c0.1,0,0.2,0,0.4,0c0,0.8-0.5,1.5-0.7,2.2c-0.5,1.6-1.8,0.3-2.6,0.3c0.8-1.3-0.5-1.7-0.9-2.5
		c0.3-0.4,0.7-0.4,1.1-0.4c0,0.1,0,0.2,0.1,0.4C51.1,4.8,52,4.3,52.9,4.1L52.9,4.1z"/>
	<path class="st114" d="M68.6,29.5c-0.7,0.7-1.2,0-1.6-0.3c-0.5-0.6,0.6-0.8,0.5-1.4c-1.1,0.2-1.3,1.2-2,1.8l0,0
		c-0.1-1.1,0.9-1.8,0.9-2.8c0-0.5,0.6-0.6,0.9-0.3c0.6,0.8,2,1,2,2.3C69.1,29,68.3,28.7,68.6,29.5z"/>
	<path class="st115" d="M69.4,38.4c0.5-0.8,0.7-1.6,0.6-2.7c1.2,0.7,1.3,2.4,3,1.9c-1.6-0.1-1.3,1.8-2.5,1.9
		C70,39.4,69.4,39.2,69.4,38.4z"/>
	<path class="st116" d="M19,24.1c0.3-0.5,0.8-0.4,0.9,0c0.1,1.1,0.7,1.9,1.4,2.6c0.3,0.4,0.3,0.7,0,0.9c-0.5,0.3-0.7-0.1-0.8-0.5
		c-0.4-1.3-1.4-1.5-2.6-1.2C17.3,24.9,18.5,24.7,19,24.1z"/>
	<path class="st117" d="M89.8,24.6c0.1,0.2,0.3,0.5,0.4,0.7c-1.7,0.2-0.7,2-1.5,2.7c-0.1,0-0.1,0.1-0.2,0.1c-0.1,0-0.1-0.1-0.2-0.1
		c-1-0.2-0.7-1-0.5-1.3c0.6-1,0.4-1.9,0.1-2.9c0.1,0,0.3,0,0.4,0C89,23.7,89.3,24.3,89.8,24.6z"/>
	<path class="st118" d="M54.8,28c-1.4,0.3-1.8-1.7-3.2-1.4c0-0.5,0.2-1.2,0.4-1.2c0.9,0.5,2.5-0.4,2.8,1.4
		C55.1,27.2,55.1,27.6,54.8,28z"/>
	<path class="st119" d="M39.4,15.3c0.3-0.3,0.2-1.2,0.5-1c0.7,0.5,1.4,0,2,0.2c0.3,0.1,0.2,0.6,0,0.8c-0.7,0.7-1.1,1.7-2.1,2.1
		c-0.5-0.4,0.4-1-0.3-1.3C39.2,15.8,39.4,15.5,39.4,15.3z"/>
	<path class="st120" d="M14.4,24.1c0.6-2.2,1.3,0.4,1.9,0c0.1,0.1,0.1,0.2,0.1,0.2c0,0.1,0,0.1-0.1,0.1c-0.8,0.7-0.1,1.7-0.5,2.5
		c-0.2,0.5-0.3,0.6-0.7,0.2C14,26.4,14.6,25.2,14.4,24.1z"/>
	<path class="st114" d="M75.7,39.6c0.9-0.8,2.3-0.4,3-1.4c0.5,0.5,0.4,0.9,0.2,1.3c-0.3,0.4,0.7,0.7,0.1,1.1c-0.4-0.8-1.6,1-1.8-0.6
		C77.1,39.3,76.1,40.3,75.7,39.6z"/>
	<path class="st121" d="M74.4,43c-1.2-0.1-1.6,0.9-2.3,1.5c-0.4,0.1-0.6-0.2-0.7-0.5c-0.1-0.5-0.1-1.1,0.3-1.5c0.1,0,0.3,0,0.4,0
		c0.6-0.2,0.7-1.3,1.5-1.2c0.7,0,1.1,0.4,1.2,1.2C75,43,74.7,43.1,74.4,43z"/>
	<path class="st115" d="M61.7,35.7c-0.3-0.4-1-0.8,0.1-1c0.4-0.1,1-0.3,0.6-0.9c0.5-0.6,1.5-0.2,2-0.9
		C63.5,33.8,63.8,35.8,61.7,35.7z"/>
	<path class="st112" d="M65.6,38c-1.1,0.4-2.6,0.7-0.6,2.2c-1,0.2-1.7-0.1-2.2-0.7c1.1-0.4,0.5-2.7,2.4-2.2
		C65.5,37.4,65.8,37.6,65.6,38z"/>
	<path class="st119" d="M46.4,18.9c-0.7,0.8-1.9,0.4-2.3,1.4c-0.2,0.3-0.8,0-0.6-0.2c0.3-0.5-0.8-0.8,0-1.4
		C44.6,17.8,45.4,18.7,46.4,18.9z"/>
	<path class="st113" d="M69.1,22.3c0.7-1.3,1.5-1.9,2.7-1.2c0.3,0.2,0.6,0.4,0.4,0.7C71.4,22.8,70.2,22.2,69.1,22.3z"/>
	<path class="st122" d="M81.7,23c0-0.1,0-0.3,0-0.4c-0.5-0.8-0.3-1.4,0.4-1.9c0.8,0,1.3,0.5,1.1,1.2c-0.2,0.7,0.2,1.8-1.1,1.9
		C81.9,23.5,81.7,23.3,81.7,23z"/>
	<path class="st123" d="M27.8,9.1c-0.1-0.1-0.3-0.3-0.4-0.4c0.5-1.2,1.9-0.5,2.7-1.2c0.5,0.6,0.4,1.3,0,1.9C29,9,28.7,10,28.2,10.7
		C27.7,10.3,27.9,9.7,27.8,9.1z"/>
	<path class="st118" d="M30.9,18.2c0-1.2,1.2-0.3,1.7-0.8c0.3-0.3,0.6,0.2,0.4,0.4c-0.4,0.6-0.8,1.5-1.7,1.5
		C30.5,19.3,30.5,18.8,30.9,18.2z"/>
	<path class="st87" d="M60.6,47.6c0.5-0.6-0.1-0.6-0.4-0.8c-0.3-0.4,0.2-0.6,0.4-0.8c0.3,0.5,2.3-0.5,1,1.3
		c-0.3,0.5,0.3,0.3,0.5,0.4c0.5,0.2,1.3,0.1,1.1,1c-0.7-0.6-1.5-0.5-2.2-0.1C60.8,48.4,60.7,48,60.6,47.6z"/>
	<path class="st99" d="M35.5,13.7c-0.3-0.9,1-1.6,0.3-2.5c0,0,0.3-0.4,0.5-0.5c0.2-0.2,0.4-0.1,0.4,0.1c-0.2,0.7,0.9,1.4,0.4,1.7
		c-1.4,0.6-0.7,1.6-0.7,2.4C35.5,14.9,35.2,14.6,35.5,13.7z"/>
	<path class="st113" d="M71.7,42.6c0,0.5,0,1,0,1.5c-0.3,0.3-0.2,0.8-0.4,1.2c-2.5-0.7-0.3-2.1-0.4-3.1l0,0
		C71.3,42.2,71.6,42.3,71.7,42.6z"/>
	<path class="st124" d="M53.9,31.7c-1.2,0.1-1.6-1-2.4-1.1c0.3-0.5,0.8-0.8,1.3-0.7C53.8,30,53.5,31,53.9,31.7z"/>
	<path class="st118" d="M69.4,38.4c0.4,0.4,0.8,0.8,1.2,1.2c-0.7,0.1-0.9,0.9-1.5,1.2c-0.3,0.2-0.5,0.2-0.8,0c0-0.1,0-0.3,0-0.4
		c0.3-0.3,0-0.8,0.4-1.2c0.1-0.3,0.3-0.5,0.4-0.8C69.2,38.4,69.3,38.4,69.4,38.4z"/>
	<path class="st114" d="M88.7,28c0.9-0.1,1.2,1,2.1,1.1c0.3,0,0.2,0.6-0.2,0.9c-1,0.7-1.3,0.1-1.5-0.8C88.7,28.8,88.4,28.5,88.7,28
		L88.7,28z"/>
	<path class="st125" d="M54.4,46.5c0.1,0.5,1.4,0.2,0.8,1.2c-0.3,0.4-0.5,1-1.1,0.4c-0.7-0.5-1.3-1-0.8-1.9c0.1,0,0.3,0,0.4,0
		C54.1,45.8,54.2,46.3,54.4,46.5z"/>
	<path class="st126" d="M46.3,49.5c-0.4,0.5-0.5,1.4-1.5,1.2c-0.6,0.3-1.1,0.3-1.6-0.1c-0.2-0.5,0-0.9,0.5-1.2
		c0.5-0.1,1,0.1,1.4-0.2c0.2-0.1,0.4-0.2,0.7-0.3C46.1,49,46.5,49,46.3,49.5z"/>
	<path class="st115" d="M28.2,10.7c0-0.7-0.2-1.4,0.6-1.8c0.6-0.3,1,0.1,1.3,0.6c0,0,0,0,0,0c-0.9,0.2-0.4,1.1-0.8,1.5
		C29,11,28.5,11.1,28.2,10.7z"/>
	<path class="st127" d="M82.1,20.7c-0.1,0.6-0.3,1.3-0.4,1.9c-1.3-0.2-1.3-1-0.9-2C81.3,19.5,81.7,20.7,82.1,20.7z"/>
	<path class="st128" d="M59,46.5c-0.3-0.2-0.6-0.5-0.9-0.7c-0.2-0.2-0.4-0.6-0.2-0.9c0.4-0.4,0.7-0.1,0.9,0.2c0.6,1,0.9,0.1,1.3-0.2
		c0,0.4,0,0.8,0,1.1C59.9,46.5,59.6,46.8,59,46.5z"/>
	<path class="st129" d="M44,49.5c-0.3,0.3-0.5,0.5-0.8,0.8c-0.3,0.4-0.7,0.7-1.2,0.4c-0.4-1.4,0.9-1.4,1.6-1.9
		c0.1-0.1,0.3-0.3,0.4-0.4c0.3-0.3,0.7-0.3,1.1-0.2c0.4,0.2,0.5,0.6,0.5,1c-0.1,0.1-0.3,0.3-0.4,0.4C44.8,49.8,44.4,49.5,44,49.5z"
		/>
	<path class="st130" d="M80.2,15.3c0.1,0.4,0.3,0.8,0.4,1.2c-1.9,1-1-1.3-1.9-1.5c-0.2-0.4,0.1-0.6,0.4-0.8c0,0,0,0,0,0
		C79.4,14.5,79.8,14.9,80.2,15.3z"/>
	<path class="st32" d="M84.9,27.2c0,0.2-0.4,0.7-1,0.9c-0.4,0.1-0.6-0.5-0.5-0.8c0-0.6,0.5-1,1.1-1.1C84.9,26,85,26.3,84.9,27.2z"/>
	<path class="st116" d="M47.1,27.2c-0.7-0.4-1.4-0.9-2.1-1.3C46.4,25.3,47.7,25,47.1,27.2L47.1,27.2z"/>
	<path class="st131" d="M14.4,24.1c1,0.8,0,2.2,0.8,3.1c-0.8,0.2-1.3-0.4-1.9-0.8c-0.2-0.6,0.7-0.6,0.6-1.2
		C14.2,25,14.1,24.5,14.4,24.1L14.4,24.1z"/>
	<path class="st127" d="M58.6,31.5c0.3-0.3,0.4-0.3,0.4-0.3c0.9,0,1.4,0.7,2.1,1c-0.1,0.1-0.1,0.4-0.3,0.4
		C59.9,32.8,59.5,31.9,58.6,31.5z"/>
	<path class="st32" d="M60.6,44.2c0.1,0,0.3,0,0.4-0.1c0.5-0.4,0.9-1.3,1.8-0.8c0.1,0.1,0.2,0.6,0.2,0.6
		C62.2,44.2,61.4,45,60.6,44.2L60.6,44.2z"/>
	<path class="st127" d="M43.6,48.8c-0.3,0.8-1.6,0.8-1.6,1.9c-0.1,0.2-0.2,0.2-0.3,0l-0.1,0c-0.1-0.2-0.2-0.3-0.3-0.5
		C41.8,49.4,42,48,43.6,48.8z"/>
	<path class="st132" d="M14,25.3c0.6,0.9-0.6,0.7-0.8,1.1c-0.6,0.3-1.3,0.7-1.9,0.1c0.9,0,1.2-0.9,1.9-1.2
		C13.5,25.1,13.7,25.1,14,25.3z"/>
	<path class="st71" d="M76.4,50.3c0.1-1.1-1.1-1-1.6-1.5c0.6-0.2,1.3-1,1.9-0.3C77.1,49,76.8,49.7,76.4,50.3z"/>
	<path class="st133" d="M18.6,17.2c0.2-0.7-0.5-1.7,0.8-1.9c1.2-0.2,1.2,0.3,0.8,1.2C19.5,16.4,19.1,17,18.6,17.2z"/>
	<path class="st113" d="M85.2,36.3c0.3-0.1,0.6-0.4,0.9-0.4c0.8-0.1,0-1.3,0.9-1.2c0.2,0,0.4,0.4,0.4,0.5c0,0.7-0.7,1-1.2,1.3
		c-0.2,0.1-0.3,0.1-0.5,0.2C85.5,36.6,85.3,36.4,85.2,36.3z"/>
	<path class="st124" d="M53.2,46.1C53,46.9,54,47.3,54,48c-0.3-0.1-0.3,0.8-0.8,0.4c-0.1-0.4-0.4-0.6-0.8-0.8v0
		C53,47.2,52.2,46.2,53.2,46.1z"/>
	<path class="st134" d="M7.8,31.1c0.1-0.1,0.3-0.3,0.4-0.4c0.9,0.8-0.1,1.4-0.4,1.8c-0.3,0.4-0.9-0.2-1.1-0.6c0,0,0,0,0,0
		C6.8,31.2,7.4,31.3,7.8,31.1z"/>
	<path class="st71" d="M38.6,20.3c-0.7,0.6-0.5,1.5-1.3,1.7c-0.1,0-0.4-0.2-0.4-0.4C37,20.9,37.3,20.4,38.6,20.3z"/>
	<path class="st135" d="M41.7,50.7c0.1,0,0.2,0,0.3,0c0.4-0.1,0.8-0.3,1.2-0.4c0.4,0.6,1,0.3,1.6,0.4c-0.7,0.3-1.4,0.6-2,0.8
		C42.2,51.5,41.8,51.2,41.7,50.7z"/>
	<path class="st116" d="M18.6,26.5c0.5,0.7,0.8,1.2,1.4,2.2c-0.9-0.7-1.4-0.6-2-0.5C18.3,27.7,18.4,27.2,18.6,26.5z"/>
	<path class="st31" d="M68.3,40.7c0.3,0,0.5,0,0.8,0c0,0.3,0.1,0.6,0.4,0.8c0.3,0.1,0.6,0.3,0.4,0.8c-0.4,0.1-0.8,0.3-1.1,0.4
		C68.8,41.9,67.7,41.5,68.3,40.7z"/>
	<path class="st29" d="M75.8,15.1c-0.9-0.8-1.3-1.5-1.9-1.8C74.8,13.3,75.5,13.6,75.8,15.1z"/>
	<path class="st125" d="M45.6,49.2c-0.3-0.2-0.4-0.5-0.4-0.8c-0.1-0.4,0.1-0.5,0.4-0.6c0.5-0.1,1,0,1.1,0.6c0,0.4,0.1,0.9-0.4,1.1
		C46.1,49.2,45.9,49.2,45.6,49.2z"/>
	<path class="st136" d="M84,49.5c-0.7,0-1.1,0.4-1.2,1.1c-0.3,0-0.5,0-0.8,0c-0.3-0.4,0-0.8,0-1.2C82.8,49.2,83.4,48.6,84,49.5z"/>
	<path class="st124" d="M54.4,46.5c-0.3-0.1-0.5-0.3-0.8-0.4c0.4-0.5-0.8-1.7,0.8-1.5C54.6,45.2,54.6,45.8,54.4,46.5z"/>
	<path class="st113" d="M73.6,41.5c-0.5,0.4-0.8,1.1-1.5,1.2c0.2-0.5,0.3-1,0.6-1.4C73.1,40.6,73.5,40.7,73.6,41.5z"/>
	<path class="st71" d="M33.8,32.9c-0.4,0-0.6-0.2-0.5-0.6c0.1-0.3,0.2-0.6,0.6-0.6c0.3,0,0.7,0.2,0.7,0.5
		C34.6,32.7,34.1,32.7,33.8,32.9z"/>
	<path class="st122" d="M39.4,15.3c0.4,0.3,0,0.5,0,0.8c-0.4,0.3-0.8,0.5-1.2,0.8c-0.2-0.3-0.2-0.5,0-0.8
		C38.3,15.3,38.8,15.3,39.4,15.3z"/>
	<path class="st137" d="M45.5,48c-0.1,0.1-0.3,0.3-0.4,0.4c-0.4,0-0.8,0-1.2,0c0.3-0.7,0.1-2.3,1.5-0.8c0.1,0.1,0.2,0.2,0.1,0.3
		C45.6,48,45.6,48,45.5,48z"/>
	<path class="st32" d="M74.2,17.4c0.2,0.5,0.8,1,0,1.4c-0.1,0.1-0.5,0.1-0.5,0C73.2,18.2,73.7,17.8,74.2,17.4z"/>
	<path class="st127" d="M79,14.1c-0.1,0.3-0.2,0.5-0.4,0.8c-1.1-0.1-1.3-0.6-0.8-1.5C78.3,13.6,78.6,13.9,79,14.1z"/>
	<path class="st123" d="M19,24.1c-0.3,0.7-1.2,1-1.2,1.9C17,25,17.1,24.9,19,24.1z"/>
	<path class="st116" d="M48.2,27.6c-0.3-0.7,0.3-0.9,0.7-1c0.6-0.2,0.8,0.1,0.9,0.7C49.3,27.6,48.9,28.1,48.2,27.6z"/>
	<path class="st138" d="M54.8,28c0-0.4,0-0.8,0-1.2c0.1,0,0.3,0,0.4,0c0.7,0.2,0.4,0.8,0.5,1.3c0.1,0.5,0.3,1-0.1,1.4
		C54.9,29.2,54.8,28.6,54.8,28z"/>
	<path class="st87" d="M54,52.2c1-0.2,1.9-0.3,1.9,1.1c-0.4,0.2-0.6,0-0.8-0.4C55,52.4,53.9,53.2,54,52.2z"/>
	<path class="st139" d="M92.4,39.6c-0.3-0.1-0.8-0.2-0.8-0.7c0-0.3,0.3-0.4,0.6-0.4c0.4,0.1,0.6,0.4,0.7,0.8
		C92.9,39.7,92.6,39.7,92.4,39.6z"/>
	<path class="st118" d="M69.8,42.2c-0.1-0.3-0.3-0.5-0.4-0.8c0.4-0.6,1-0.3,1.5-0.4c0.3,0.3,0,0.5,0,0.8c0,0.1,0,0.3,0,0.4
		c0,0,0,0,0,0C70.6,42.2,70.2,42.2,69.8,42.2z"/>
	<path class="st114" d="M65.6,29.5c-0.1,0.5-0.1,1.1-0.8,0.8c-0.2-0.1-0.5-0.5-0.4-0.6C64.6,29.2,65.1,29.3,65.6,29.5
		C65.6,29.5,65.6,29.5,65.6,29.5z"/>
	<path class="st118" d="M55.2,28c0.2-0.4,0.2-0.8,0-1.2c0.2-0.2,0.3-0.3,0.5-0.5c0.5,0.5,0.6,1,0.3,1.7C55.7,28.2,55.4,28.2,55.2,28
		z"/>
	<path class="st113" d="M71,41.8c-0.4-0.3,0-0.5,0-0.8c0.4-0.1,0.9-0.7,1.1,0.1C72.2,41.9,71.4,41.8,71,41.8z"/>
	<path class="st140" d="M35.5,13.7c0,0.6,0.3,0.9,0.8,1.2c-0.6,0.6-1.1,0.1-1.4-0.3C34.6,14.1,35,13.8,35.5,13.7z"/>
	<path class="st29" d="M80.9,28.6c0.4,0,0.4,0.3,0.4,0.5c0,0.3,0,0.5-0.3,0.6c-0.4,0.1-0.4-0.3-0.4-0.5C80.6,29,80.6,28.7,80.9,28.6
		z"/>
	<path class="st45" d="M34.9,20.3c-0.7-0.1-1.1-0.3-1.1-0.8c0-0.1,0.3-0.3,0.4-0.3C34.7,19.3,34.6,19.9,34.9,20.3z"/>
	<path class="st141" d="M74.4,22.4c-0.4-0.3-0.9-0.7-1.6-1.2c1,0.1,1.5,0.3,1.8,0.8C74.5,22.1,74.5,22.2,74.4,22.4z"/>
	<path class="st32" d="M77.3,17.9c0.1,0.5,0.4,1-0.1,1.3c-0.1,0-0.3-0.1-0.4-0.3C76.3,18.2,77.3,18.3,77.3,17.9z"/>
	<path class="st142" d="M86.9,31.4c-0.1,0.1-0.3,0.3-0.5,0.3c-0.3,0-0.4-0.2-0.4-0.5c0-0.3,0.3-0.4,0.5-0.4
		C86.9,30.8,87,31,86.9,31.4z"/>
	<path class="st143" d="M80.1,18.1c0.4,0,0.6,0.2,0.7,0.5c0.1,0.2-0.1,0.4-0.3,0.4c-0.3-0.1-0.6-0.2-0.8-0.4
		C79.6,18.3,79.9,18.2,80.1,18.1z"/>
	<path class="st121" d="M39.2,18.3c0,0.4-0.3,0.4-0.5,0.4c-0.3,0-0.5,0-0.6-0.3C38,18.1,38.3,18,38.6,18C38.8,18,39.1,18,39.2,18.3z
		"/>
	<path class="st99" d="M67.5,35.6c-0.1,0.4-0.3,0.7-0.6,0.7c-0.2,0-0.4-0.1-0.3-0.3c0.1-0.4,0.3-0.7,0.8-0.7
		C67.3,35.2,67.4,35.5,67.5,35.6z"/>
	<path class="st127" d="M45.5,48c0-0.1,0-0.3,0-0.4c0.4-0.1,0.7-0.5,1.2-0.1c0.3,0.3,0.4,0.6,0,0.9C46.3,48.3,45.9,48.1,45.5,48z"/>
	<path class="st142" d="M82.4,26.7c0.2,0.4,0.3,0.9-0.2,1.1c-0.1,0.1-0.5,0-0.5-0.1C81.6,27.3,81.7,26.9,82.4,26.7z"/>
	<path class="st144" d="M20.1,16.4c0-0.6,0-1.1-0.8-1.2c0.1-0.1,0.2-0.3,0.4-0.4c0.3-0.2,0.5-0.2,0.8,0c0.1,0.3,0.3,0.5,0.4,0.8
		C20.7,15.9,20.4,16.2,20.1,16.4z"/>
	<path class="st145" d="M65.6,38c-0.1-0.3-0.3-0.5-0.4-0.8c0.4-0.1,0.8-0.6,1.2,0c0,0.3,0,0.5,0,0.8C66.1,38,65.8,38,65.6,38z"/>
	<path class="st117" d="M48.2,27.6c0.5-0.1,1-0.3,1.5-0.4C49.5,28.2,49,28.7,48.2,27.6z"/>
	<path class="st112" d="M52.5,47.6c-0.6,0.5-1.2,0.6-1.6-0.5C51.5,47.3,52,47.5,52.5,47.6C52.5,47.6,52.5,47.6,52.5,47.6z"/>
	<path class="st99" d="M51.7,28.5c-0.2,0.2-0.2,0.4-0.4,0.5C51,29,51,28.7,51,28.5c0-0.2-0.1-0.6,0.3-0.5
		C51.4,28,51.6,28.3,51.7,28.5z"/>
	<path class="st114" d="M49.8,47.6c0.2,0,0.6,0,0.5,0.4c0,0.2-0.1,0.6-0.4,0.5c-0.2,0-0.5-0.3-0.5-0.5
		C49.2,47.7,49.5,47.7,49.8,47.6z"/>
	<path class="st130" d="M55.2,28c0.3,0,0.5,0,0.8,0c0.1,0.6,0.3,1.2-0.4,1.5C55.6,29,55.4,28.5,55.2,28z"/>
	<path class="st146" d="M68.6,29.5c-0.3-0.2-0.8-0.4-0.4-0.8c0.4-0.5,0.8-0.1,1.2,0.1C69.2,29,68.9,29.3,68.6,29.5z"/>
	<path class="st118" d="M41,8c-1,0-1.5-0.2-1.8-0.7C40,6.8,40.2,7.5,41,8z"/>
	<path class="st146" d="M71.3,45.3c-0.2-0.5-0.6-1.1,0.4-1.2c0.1,0.1,0.3,0.3,0.4,0.4c-0.3,0.4-0.5,0.8-0.8,1.2
		C71.3,45.6,71.3,45.4,71.3,45.3z"/>
	<path class="st147" d="M85.5,31c-0.1,0.1-0.3,0.3-0.3,0.3c-0.2-0.1-0.4-0.3-0.5-0.5c-0.1-0.3,0.1-0.5,0.4-0.4
		C85.4,30.4,85.5,30.6,85.5,31z"/>
	<path class="st122" d="M29.4,11.1c0.2-0.5-0.8-1.7,0.8-1.5c-0.4,0.5-0.3,1,0,1.5C29.9,11.1,29.6,11.1,29.4,11.1z"/>
	<path class="st148" d="M82.1,49.5c0.6,0.4,0.1,0.8,0,1.2C80.9,50.3,81.5,49.9,82.1,49.5z"/>
	<path class="st149" d="M55.2,53c0.3,0.1,0.5,0.3,0.8,0.4c0.1,0.1,0.2,0.2,0.4,0.4c0,0-0.1,0.1-0.1,0.1s-0.2,0-0.2,0
		C55.7,53.6,54.6,54.1,55.2,53z"/>
	<path class="st148" d="M55.8,31.4c-0.1,0.1-0.3,0.2-0.6,0.3c-0.1,0-0.2-0.2-0.3-0.3c0.2-0.1,0.4-0.3,0.6-0.4
		C55.8,30.9,55.8,31.1,55.8,31.4z"/>
	<path class="st70" d="M88.7,28c0.1,0.4,0.3,0.8,0.4,1.2c-1.1,0.2-0.9-0.5-0.8-1.2C88.4,28,88.5,28,88.7,28z"/>
	<path class="st150" d="M65.7,7.3c0.5,0,1,0.1,0.9,0.7c-0.1,0.4-0.6-0.1-1,0c-0.1-0.1-0.2-0.2-0.1-0.2c0-0.1,0.1-0.1,0.1-0.1
		C65.6,7.5,65.6,7.4,65.7,7.3z"/>
	<path class="st132" d="M92.9,32.2c0,0.6,0,1.3,0,1.9c-0.3-0.2-0.4-0.5-0.4-0.8C92.2,32.9,92.3,32.4,92.9,32.2z"/>
	<path class="st151" d="M43.3,21.4c0.5-0.1,0.9,0,1.3,0.3C44,22.2,43.7,21.9,43.3,21.4z"/>
	<path class="st152" d="M79.2,22c0.6,0.6,0.2,1,0,1.7C79,23,79,22.6,79.2,22z"/>
	<path class="st99" d="M81.7,23c0.3,0.2,0.4,0.5,0.4,0.8c-0.3,0-0.8,0.1-0.9-0.3C81,23,81.5,23.1,81.7,23z"/>
	<path class="st116" d="M47.1,27.2c0.3,0.2,0.5,0.6,0.2,0.9c-0.2,0.2-0.5,0.1-0.6-0.1C46.4,27.6,47,27.5,47.1,27.2L47.1,27.2z"/>
	<path class="st139" d="M90.6,39.4c0.1,0.1,0.3,0.2,0.5,0.4c0,0-0.1,0.2-0.2,0.4c-0.2-0.1-0.4-0.2-0.6-0.4
		C90.2,39.6,90.3,39.4,90.6,39.4z"/>
	<path class="st108" d="M47.8,13.2c-0.2,0.2-0.2,0.3-0.3,0.4c-0.2-0.2-0.4-0.3-0.5-0.5c-0.1-0.2,0-0.4,0.2-0.4
		C47.4,12.8,47.6,13,47.8,13.2z"/>
	<path class="st106" d="M31.7,9.9c-0.4-0.1-0.8-0.2-0.7-0.7c0.1-0.4,0.4-0.4,0.7-0.5C31.7,9.1,31.7,9.5,31.7,9.9z"/>
	<path class="st45" d="M85.3,48.1c-0.1,0.2-0.3,0.4-0.4,0.5c-0.2,0.1-0.3-0.2-0.2-0.3c0.1-0.2,0.3-0.3,0.5-0.5
		C85.2,47.8,85.3,47.9,85.3,48.1z"/>
	<path class="st121" d="M74.4,43c0.1-0.1,0.3-0.3,0.4-0.4c0.5,0.3,0.4,0.7,0.4,1.2C74.9,43.5,74.2,43.7,74.4,43z"/>
	<path class="st153" d="M65.9,40.7c0,0.3,0,0.5,0,0.8c-0.3-0.1-0.8,0.2-0.8-0.3C65.1,40.7,65.6,40.7,65.9,40.7z"/>
	<path class="st121" d="M84.3,43.4c-0.2-0.1-0.3-0.2-0.4-0.3c0.1-0.1,0.2-0.3,0.4-0.3c0.1,0,0.2,0.1,0.4,0.2
		C84.6,43.1,84.5,43.2,84.3,43.4z"/>
	<path class="st11" d="M38.2,16c0,0.3,0,0.5,0,0.8c-0.3-0.2-1-0.3-0.9-0.7C37.4,15.7,37.9,16.2,38.2,16z"/>
	<path class="st154" d="M16.3,24.5c0-0.1,0-0.2,0-0.4c0-0.3,0.1-0.6,0.4-0.8C16.9,23.9,17.3,24.4,16.3,24.5z"/>
	<path class="st32" d="M34.7,11.2c-0.3,0.1-0.5,0.3-0.7,0.3c-0.2,0-0.3-0.2-0.2-0.3c0.1-0.1,0.2-0.3,0.4-0.3
		C34.3,10.9,34.4,11.1,34.7,11.2z"/>
	<path class="st113" d="M71.2,23.5c-0.1,0-0.3,0.2-0.4,0.1c-0.1-0.1-0.2-0.3-0.3-0.4c0.1,0,0.2-0.1,0.3-0.1
		C71,23,71.2,23.1,71.2,23.5z"/>
	<path class="st115" d="M64.6,35c0.1,0.2,0.3,0.4,0.3,0.6c0.1,0.2-0.2,0.3-0.3,0.2c-0.2-0.2-0.2-0.4-0.3-0.6
		C64.3,35.2,64.4,35.1,64.6,35z"/>
	<path class="st147" d="M37.1,19.7c-0.1,0.2-0.2,0.4-0.3,0.4c-0.4,0.1-0.2-0.3-0.3-0.5c0-0.2,0-0.4,0.2-0.4
		C36.9,19.3,37,19.5,37.1,19.7z"/>
	<path class="st127" d="M61.7,33.8c-0.3,0-0.5,0.4-0.8,0c0.1-0.2,0.2-0.5,0.3-0.6C61.7,33.1,61.7,33.5,61.7,33.8z"/>
	<path class="st155" d="M59,46.5c0.4-0.1,0.8-0.3,1.2-0.4c0.1,0,0.2,0,0.4,0c-0.1,0.3-0.2,0.5-0.4,0.8C59.7,46.8,59.3,46.9,59,46.5z
		"/>
	<path class="st156" d="M12.9,31.8c0.2-0.1,0.4-0.3,0.5-0.3c0.1,0,0.2,0.2,0.3,0.3c-0.1,0.1-0.2,0.3-0.4,0.3
		C13.2,32.1,13.1,32,12.9,31.8z"/>
	<path class="st157" d="M65.6,7.6c0,0.1,0,0.2,0,0.4c0,0.1,0,0.3,0,0.4c0,0.1,0,0.3,0,0.4C64.3,8.4,65,8,65.6,7.6z"/>
	<path class="st158" d="M31.7,53c0-0.6,0.3-1,0.8-1.2c2.1,2.8,3.4,5.9,4.2,9.2c-0.2,0.2-0.5,0.2-0.7,0.1c-0.7-0.9-1.9-1.6-2.3-2.8
		c-0.8-0.7,0.5-2.1-0.8-2.7C32.3,54.9,31.7,54.1,31.7,53z"/>
	<path class="st115" d="M52.9,95.3c-0.4,0-0.9,0-1.3,0c-0.5-0.3-0.9-0.7-0.6-1.4c1.3-1.9,2.8-2,4.6-0.4c0,1.2-1,1.2-1.7,1.6
		C53.5,95.2,53.1,95,52.9,95.3z"/>
	<path class="st159" d="M43.2,69.5c0-0.4,0-0.7,0-1.1c0.8,2.1,2,4.1,1.5,6.7C42.1,73.6,43.8,71.3,43.2,69.5z"/>
	<path class="st160" d="M53.6,95c0.6-0.5,1.3-1,1.9-1.5c0.4,0.4,0.9,0.8,1.4,0.2c0.3-0.4,0.7-0.5,1.1-0.1c0.2,0.2,0.5,0.5,0.3,0.8
		c-0.3,0.4-0.5,1.2-1,1c-0.9-0.3-1.8,0.3-2.5-0.3C54.4,95.2,54,95.2,53.6,95z"/>
	<path class="st115" d="M60.6,85c-1.1,0.4,1,1.4-0.5,2c-2.3,0.9-2.4,0.9-2.9-2c0-0.1-0.1-0.1-0.1-0.2c1.3,0.8,2.4-0.3,3.6-0.3
		C60.7,84.6,60.7,84.8,60.6,85z"/>
	<path class="st127" d="M60.6,85c0-0.1,0-0.3,0-0.4c0-0.2-0.1-0.4-0.1-0.7c0-0.5-0.2-0.9-0.5-1.2c-0.1-0.1-0.1-0.3-0.2-0.4
		c0-0.6,0-1.2,0-1.9c0.4-0.3,0.3-0.9,0.8-1.2c1.7,1.3,0.5,3.3,1,4.9C61.8,84.6,61.1,84.9,60.6,85z"/>
	<path class="st161" d="M60.9,84.2c-0.1,0.1-0.3,0.3-0.4,0.4c-0.2,0-0.5,0-0.5,0c-0.7,2.5-1.9,1-2.9,0.4c-0.7-0.7-0.3-1.5-0.4-2.3
		c0.4,0,0.8,0,1.1,0c0,0.1,0.1,0.2,0.1,0.3c0,0.5,0.3,0.7,0.7,0.7c0.2,0,0.5,0,0.7,0C60,83.7,60.6,83.5,60.9,84.2z"/>
	<path class="st162" d="M56.3,58.4c0,0.3,0,0.5,0,0.8c-0.6,0.2-1.3,0-1.5,0.8c0.2,0.6,0.1,1.1-0.3,1.6c-0.8,0.3-1.2-0.3-1.6-0.8
		c-0.4-1.1,0.6-1.2,1.1-1.6c0.3-0.5,0.7-0.9,1.2-1.1c0.1,0,0.2,0,0.4,0C55.5,58.6,55.9,58.6,56.3,58.4z"/>
	<path class="st163" d="M52.8,60.7c0.5,0.3,1,0.5,1.5,0.8c0.3-0.2,0.5-0.2,0.8,0c0.1,0.5-0.2,1.1,0.4,1.5c0,0.1,0,0.3,0,0.4
		C53.2,64,53.6,61.8,52.8,60.7z"/>
	<path class="st164" d="M69.4,73.4c-0.7-0.6-1.3-1.1-2.1-1.8c0.9-0.7,1.7-1.5,2.9-1.7c0.1,0.1,0.2,0.3,0.1,0.5
		c-0.3,0.7-0.8,1.3-0.6,2.1C69.7,72.8,69.7,73.2,69.4,73.4z"/>
	<path class="st165" d="M33.6,95c0-0.3,0-0.5,0-0.8c0.7-0.1,0-1.3,0.8-1c0.8,0.3,1.8,0.8,1.9,1.7c0.1,1-0.8,0.2-1.2,0.5
		C34.6,94.9,34.1,95.1,33.6,95z"/>
	<path class="st144" d="M54,69.2c-0.3-0.4-0.5-0.8-0.8-1.2c0.4-1.1,0.9-2.2,2.3-2.3c0.5,0.8,0,1.4-0.3,2.1
		C54.8,68.2,55,69.2,54,69.2z"/>
	<path class="st166" d="M64,93.6c0.3,1,2,0.1,1.9,1.3c-0.1,0.7-1.2,1-1.9,0.7C62.9,95.1,64.1,94.3,64,93.6z"/>
	<path class="st167" d="M71.7,66.1c0,0.1,0,0.2-0.1,0.3c-0.6,0-1.1,0-1.1-0.8c0.1-1,0.6-1.9,1.2-2.7c0.2-0.2,0.4-0.5,0.5-0.4
		c0.6,0.3,0.1,0.9,0.3,1.3c-0.1,0.5,0.1,1.1-0.4,1.5C71.7,65.4,71.9,65.9,71.7,66.1z"/>
	<path class="st168" d="M41.4,76.5c0.6,0.4,0.1,1.3,0.9,1.7c0.5-1.6-0.2-3.2,0.6-4.7c0,1.4,0,2.8,0,4.2c0,0.5,0.2,1.3-0.6,1.3
		c-0.7,0-0.7-0.8-0.8-1.3C41.3,77.3,41.4,76.9,41.4,76.5z"/>
	<path class="st119" d="M73,59.2c0,0.6-0.4,0.9-0.9,1c-0.7,0.2-0.9-0.4-1-0.9c-0.1-0.7,0.5-0.8,1-0.9C72.7,58.3,72.9,58.8,73,59.2z"
		/>
	<path class="st169" d="M54.8,67.6c0.4-0.6,0.9-1.1,0.8-1.9c0-0.5-0.6-1.2,0.4-1.5c0,1.6,0,3.1-0.1,4.7c-0.1-0.1-0.2-0.1-0.3-0.1
		C54.7,68.8,54.7,68.2,54.8,67.6z"/>
	<path class="st140" d="M44.8,55.3c0.1,0.1,0.3,0.3,0.4,0.4c0.6,0.5,0.9,1.1,0.8,1.9c0.3,0.5,0.3,0.8-0.4,0.8c-0.1,0-0.3,0-0.4,0
		c-0.1-0.1-0.2-0.2-0.2-0.4c0-0.4-0.2-0.4-0.5-0.3c-0.2,0-0.3,0-0.4-0.1c0-0.3,0-0.5,0-0.8C44.5,56.4,43.7,55.5,44.8,55.3z"/>
	<path class="st170" d="M60.6,79.2c0,0.5,0,1.1-0.8,1.2c0-0.3-0.1-0.6-0.4-0.8c0.2-0.3,0.8-0.6,0.4-1.1c0.1-0.3,0.3-0.5,0.4-0.8
		c0.1-0.2,0.1-0.4,0.4-0.4C61.8,77.9,60.7,78.5,60.6,79.2z"/>
	<path class="st171" d="M31.7,53c0.7,0.7,1.2,1.6,1.2,2.7c-1.2-0.3-1.2-1.6-1.9-2.3C31.1,53.1,31.4,53,31.7,53z"/>
	<path class="st172" d="M38.2,65.7c0.1,0.4,0.3,0.8,0.4,1.2c-0.4,0.6,0.2,1.2,0.1,1.7c-0.1,0.1-0.1,0.1-0.2,0.2
		C37,67.8,36.9,67,38.2,65.7z"/>
	<path class="st138" d="M71.7,63c0.3,1.2-0.8,1.8-1.2,2.7C70.7,64.7,69.5,63.1,71.7,63z"/>
	<path class="st32" d="M61.8,79.2c0.8-0.3,1.3-1.4,2.2-0.7c0.2,0.1,0.2,0.4,0.3,0.6C63.5,78.7,62.9,80.4,61.8,79.2z"/>
	<path class="st173" d="M43.6,64c0-0.6,0.1-1.2,0.1-1.8c0.5,1.2,1.2,2.5,0.3,3.8C42.9,65.6,43.6,64.7,43.6,64z"/>
	<path class="st174" d="M33.7,58.4c0.7,0.9,1.8,1.6,2.3,2.7c0.1,0.1,0.2,0.2,0.1,0.3c0,0.1-0.1,0.1-0.1,0.1
		C35.1,60.5,33.5,60.1,33.7,58.4z"/>
	<path class="st115" d="M45.5,58.4c0.3-0.2,0.4-0.5,0.4-0.8c0.4,0.1,0.9,0.2,1.5,0.3c-0.4,0.6-1.2,0.9-1.2,1.8
		C45.7,59.3,45.6,58.9,45.5,58.4z"/>
	<path class="st23" d="M33.2,92.3c-0.1,0.7-0.4,1.1-1.2,1.2c0-0.5,0-1,0-1.5c0-0.3,0-0.5,0-0.8C32.6,91.4,33,91.8,33.2,92.3z"/>
	<path class="st175" d="M49.4,56.5c1.8,0,3.6,0,5.4,0C53,57.1,51.2,57.1,49.4,56.5z"/>
	<path class="st176" d="M43.6,64c0.2,0.7-0.2,1.5,0.4,2.1c-0.1,0.7-0.3,1.4-0.7,1.9C43.3,66.7,43.1,65.3,43.6,64z"/>
	<path class="st177" d="M50.9,93.8c0.2,0.5,0.4,0.9,0.6,1.4c-0.3,0-0.7,0-1,0c-1-0.4-0.6-1.1-0.4-1.8C50.4,93.6,50.7,93.7,50.9,93.8
		z"/>
	<path class="st45" d="M48.7,92.7c-0.2,0.2-0.4,0.7-0.7,0.8c-0.4,0.1-0.5-0.5-0.5-0.8c-0.1-0.4,0.1-0.6,0.5-0.5
		C48.3,92.3,48.7,92.1,48.7,92.7z"/>
	<path class="st178" d="M23.2,55.3c0.3-0.7-1-0.9-0.5-1.6c1.3,0,1.5,0.6,0.9,1.6C23.5,55.3,23.4,55.3,23.2,55.3z"/>
	<path class="st179" d="M69.4,73.4c0-0.4,0-0.8,0-1.2c0.6,0.3,0.6,0.3,1.1,0c0.1,0.6-0.2,1-0.4,1.5C69.8,73.8,69.6,73.7,69.4,73.4z"
		/>
	<path class="st180" d="M70.2,70.3c0-0.1,0-0.3,0-0.4c0.2-0.3,0.4-0.9,0.9-0.3c-0.1,0.7,0,1.3-0.4,1.9C70.1,71.3,70,70.9,70.2,70.3z
		"/>
	<path class="st181" d="M55.9,75.7c0,0.4,0.1,0.9-0.4,1.2c-0.4,0.3-0.6-0.2-0.8-0.4c0-0.6,0.3-0.9,0.8-1.2
		C55.8,75.4,55.9,75.5,55.9,75.7z"/>
	<path class="st99" d="M28.9,52.6c-0.3,0-0.5,0-0.5-0.4c0-0.4,0.2-0.6,0.6-0.6c0.3,0,0.5,0.1,0.5,0.4C29.5,52.4,29.2,52.5,28.9,52.6
		z"/>
	<path class="st182" d="M55.2,58c-0.3,0.5-0.6,0.9-1.2,1.1C53.5,57.8,53.9,57.5,55.2,58z"/>
	<path class="st183" d="M44.1,57.6c0.1,0,0.2,0,0.3,0c0.3,0,0.6,0.1,0.8,0.4c0,0.1,0,0.3,0,0.4c-0.3,0.4-0.5,1.1-1.2,0.3
		C44,58.4,44,58,44.1,57.6z"/>
	<path class="st115" d="M47.8,58.9c0.5-0.9,1-0.7,1.5-0.6c0,0,0,0.3,0,0.5C48.9,58.8,48.4,58.9,47.8,58.9z"/>
	<path class="st184" d="M39.5,69.1c0.3,0.2,0.3,0.5,0.3,0.8c-0.8,0-1.5,0-1.2-1.1c0,0,0.1,0,0.1,0C39.1,68.5,39.2,69,39.5,69.1z"/>
	<path class="st185" d="M55.9,75.7c-0.1-0.1-0.3-0.3-0.4-0.4c0-0.4-0.1-0.9,0.4-1.2c0.3,0.5,0.4,1,0.4,1.5
		C56.2,75.7,56.1,75.7,55.9,75.7z"/>
	<path class="st186" d="M33.6,95c0.6-0.2,1.1-0.6,1.5,0.3c-0.6,0-1.2,0-1.7,0C33.4,95.1,33.5,95,33.6,95z"/>
	<path class="st187" d="M50.2,93.4c0,0.6-0.1,1.3,0.4,1.8c-0.3,0-0.5,0-0.8,0c0-0.7,0-1.5-0.1-2.2C49.9,93.2,50,93.3,50.2,93.4z"/>
	<path class="st114" d="M37.2,83.2c-0.9-0.1-0.7-0.6-0.5-1.1c0-0.1,0.1-0.2,0.2-0.3C37.1,82.3,37.5,82.6,37.2,83.2z"/>
	<path class="st115" d="M60,87.2c0.5,0.4,1,0.6,0.9,1.1c0,0.1-0.3,0.3-0.5,0.2C60,88.4,60.1,87.9,60,87.2z"/>
	<path class="st188" d="M53.6,95c0.4,0,0.8,0,1.1,0c-0.5,0.6-1.2,0.3-1.9,0.3C52.9,94.6,53.3,94.8,53.6,95z"/>
	<path class="st189" d="M60.6,77.2c-0.1,0.1-0.3,0.3-0.4,0.4c-0.4-0.5,0-1,0-1.5C61.2,76.2,60.4,76.9,60.6,77.2z"/>
	<path class="st87" d="M54.8,76.5c0.3,0.1,0.5,0.3,0.8,0.4c0.1,0.4,0.3,0.8,0.4,1.2C55.3,77.7,54.8,77.3,54.8,76.5z"/>
	<path class="st140" d="M62,89.6c0.1-0.1,0.2-0.3,0.4-0.3c0.3-0.1,0.5,0.1,0.6,0.3c0,0.1-0.2,0.3-0.4,0.3C62.4,90,62.1,90,62,89.6z"
		/>
	<path class="st145" d="M54.5,87.8c-0.1-0.3-0.3-0.9-0.2-1c0.5-0.4,0.5,0.3,0.6,0.5c0.1,0.1-0.1,0.3-0.1,0.5
		C54.7,87.8,54.6,87.8,54.5,87.8z"/>
	<path class="st190" d="M37.3,86.6c-0.1,0-0.2,0.2-0.4,0.2c-0.3,0-0.5-0.2-0.3-0.5c0.1-0.1,0.3-0.2,0.5-0.2
		C37.2,86.2,37.4,86.3,37.3,86.6z"/>
	<path class="st171" d="M35.9,61.5c0-0.1,0-0.3,0-0.4c0.2,0,0.5,0,0.7,0c0.1,0.4,0.3,0.8,0.4,1.2C36.2,62.7,36.4,61.6,35.9,61.5z"/>
	<path class="st191" d="M40.8,82.9c-0.2,0.2-0.3,0.3-0.5,0.4c-0.1,0-0.2-0.1-0.4-0.2c0.1-0.1,0.2-0.3,0.3-0.3
		C40.4,82.7,40.5,82.8,40.8,82.9z"/>
	<path class="st125" d="M66.2,57.1c-0.1,0.2-0.2,0.5-0.4,0.6c-0.2,0.1-0.3-0.2-0.2-0.3c0.1-0.2,0.3-0.4,0.4-0.6
		C66.1,56.8,66.2,56.9,66.2,57.1z"/>
	<path class="st192" d="M41.3,64.1c0,1.3,0,2.6,0,4c-0.6-0.3-0.7-0.7-0.7-1.2C41.3,66.1,40.6,64.9,41.3,64.1z"/>
	<path class="st193" d="M44.8,55.3c-0.2,0.5-0.4,1-0.7,1.5c0-0.6,0-1.2,0-1.8C44.3,55,44.7,54.8,44.8,55.3z"/>
	<path class="st194" d="M39.5,69.1c-0.3-0.1-0.6-0.2-0.9-0.4c-0.3-0.6-0.7-1.3,0-1.9C38.9,67.6,39.2,68.4,39.5,69.1z"/>
	<path class="st195" d="M7.8,31.1c-0.4,0.3-0.8,0.5-1.1,0.8c-0.4-0.6-0.5-1.2-0.3-1.8c0.4-0.2,0.9-0.3,1.3-0.5
		C8.2,30,7.4,30.6,7.8,31.1z"/>
	<path class="st196" d="M14,25.3c-0.3,0-0.5,0-0.8,0c-0.2-0.7,1-0.4,0.8-1.1c0.1,0,0.3,0,0.4,0C14.4,24.6,14.4,25,14,25.3z"/>
	<path class="st174" d="M21.3,13.7c0.4,0.2,0.8,0.4,1,1.1c-0.9,0-1.3-0.3-1.3-1.1C21,13.7,21.2,13.7,21.3,13.7z"/>
	<path class="st113" d="M20.5,14.9c-0.3,0-0.5,0-0.8,0c-0.1-0.3-0.2-0.5-0.4-0.8c0.1,0,0.3,0,0.4,0C20.3,14.1,20.5,14.4,20.5,14.9z"
		/>
	<path class="st197" d="M52.8,4.1c-0.9,0.1-1.8,2.2-2.6,0C51.1,3.6,52,4.1,52.8,4.1z"/>
	<path class="st198" d="M60.5,51.5c-0.8-0.1-0.9-0.8-1.2-1.3c0.4-0.4,1,0.4,1.3-0.3c0.1-0.2,0.2-0.2,0.4,0c0.3,0.2,0.4,0.5,0.4,0.8
		c0,0.1,0,0.2,0,0.3C61,51.2,60.8,51.3,60.5,51.5z"/>
	<path class="st155" d="M92.1,26c-0.1,0.4-0.1,0.8-0.7,0.6c-0.1-0.1-0.3-0.3-0.2-0.4C91.4,25.6,91.8,26,92.1,26
		C92.2,26,92.1,26,92.1,26z"/>
	<path class="st199" d="M71.4,46.9c0.9,0.3,1.8,0.6,1.8,1.6c0,0.1-0.2,0.4-0.3,0.4C72,48.6,72,47.5,71.4,46.9z"/>
	<path class="st156" d="M73.5,46.7c-0.1-0.3-0.2-0.5-0.1-0.6c0.1-0.1,0.3-0.2,0.4-0.2c0,0.1,0.2,0.3,0.1,0.3
		C73.8,46.4,73.7,46.5,73.5,46.7z"/>
	<path class="st200" d="M54.8,67.6c0.3,0.4,0.5,0.8,0.8,1.2c-0.1,0.6-0.3,1.3-0.4,1.9c-0.9-0.1-1-0.8-1.1-1.6
		C54.6,68.8,54.2,68,54.8,67.6z"/>
	<path class="st87" d="M61,49.9c-0.1,0-0.3,0-0.4,0c0.4-0.3-1.1-1.2,0.4-1.2C60.9,49.2,60.9,49.5,61,49.9z"/>
	<path class="st201" d="M59.4,84.2c-0.2,0-0.5,0-0.7,0c-0.4-0.4-0.3-0.8-0.1-1.2c0-0.4,0.1-0.7,0.1-1.1c0.4,0.1,0.7,0.2,1.1,0.4
		c0.1,0,0.2,0,0.3,0C60.7,83.2,60.1,83.7,59.4,84.2z"/>
	<path class="st87" d="M55.2,61.5c-0.3,0-0.5,0-0.8,0c-0.1-0.6,0.1-1.1,0.4-1.5c0.5,0.2,0.9,0.6,1.1,1.1
		C55.7,61.2,55.4,61.3,55.2,61.5z"/>
	<path class="st202" d="M58.6,83c0,0.4,0,0.8,0.1,1.2c-0.9,0-1.7,0-0.7-1.2C58.2,83,58.4,83,58.6,83z"/>
	<path class="st88" d="M30.5,74.5c0.3-0.4,0.5,0,0.8,0c0.3,0.2,0.3,0.4,0.4,0.7c-0.5,0.3,0.1,1.5-0.7,1.3
		C30.2,76.3,30.7,75.2,30.5,74.5z"/>
	<path class="st129" d="M32.1,76.9c0-0.5,0-1,0-1.5C33.1,75.8,32.6,76.4,32.1,76.9z"/>
	<path class="st203" d="M30.6,91.2c0.2,0.2,0.5,0.5,0.7,0.7c-0.1,0.1-0.1,0.3-0.2,0.4C30.7,92.1,30.6,91.7,30.6,91.2z"/>
	<path class="st204" d="M71.7,66.1c-0.1-0.3-0.5-0.7-0.1-1c0.2-0.2,0.4,0.1,0.6,0.3C72.2,65.8,72.1,66.1,71.7,66.1z"/>
	<path class="st205" d="M70.2,70.3c0.1,0.4,0.3,0.8,0.4,1.3c0,0.2-0.1,0.5-0.1,0.7c-0.4,0.6-0.7,0.5-1.1,0
		C68.8,71.3,69.5,70.8,70.2,70.3z"/>
	<path class="st164" d="M55.9,44.5c1.5-0.7,0.7,0.8,1.2,1.2c-0.7,0.4-1.2,0.4-1.7-0.3C55.1,44.8,55.4,44.6,55.9,44.5z"/>
	<path class="st106" d="M56.5,53.3c-0.1-1.1-0.1-1.7-0.1-2.3c0.2,0,0.6,0,0.7,0.1C57.5,51.7,57,52.2,56.5,53.3z"/>
	<path class="st156" d="M68.6,39.2c0,0.4,0.1,0.9-0.4,1.2c-0.2-0.4-0.6-0.3-1.1-0.2C67.5,39.3,68.2,39.5,68.6,39.2z"/>
	<path class="st206" d="M44,49.5c0.4-0.6,0.8-0.1,1.2,0C44.8,50,44.4,50,44,49.5z"/>
	<path class="st207" d="M59.4,84.2c0.4-0.6,0.9-1.1,0.8-1.9c0.6,0.5,0.8,1.2,0.8,1.9C60.4,83.8,59.9,84.2,59.4,84.2z"/>
	<path class="st208" d="M45.2,58c-0.3,0-0.6-0.1-0.8-0.4c0.3-0.4,0.5-1.1,1-0.8C45.8,57.1,45.3,57.6,45.2,58z"/>
</g>
</svg>
